<?xml version="1.0" encoding="UTF-8"?>
<svg viewBox="0 0 39.774742 35.245132" xmlns="http://www.w3.org/2000/svg">
 <defs>
  <radialGradient id="a" cx="24.837" cy="36.421" r="15.645" gradientTransform="matrix(1 0 0 .53672 0 16.873)" gradientUnits="userSpaceOnUse">
   <stop offset="0"/>
   <stop stop-opacity="0" offset="1"/>
  </radialGradient>
  <radialGradient id="c" cx="19.701" cy="2.8969" r="17.171" gradientTransform="matrix(2.0467 0 0 1.5576 13.409 -29.653)" gradientUnits="userSpaceOnUse">
   <stop stop-color="#fff" offset="0"/>
   <stop stop-color="#fff" stop-opacity="0" offset="1"/>
  </radialGradient>
  <radialGradient id="b" cx="22.292" cy="32.798" r="16.956" gradientTransform="matrix(.84302 0 0 1.0202 37.427 -31.723)" gradientUnits="userSpaceOnUse">
   <stop stop-color="#729fcf" offset="0"/>
   <stop stop-color="#3465a4" offset="1"/>
  </radialGradient>
 </defs>
 <g transform="translate(-36.493 26.48)">
  <path transform="matrix(1.2712 0 0 1.2712 24.808 -48.207)" d="m40.482 36.421a15.645 8.3969 0 1 1 -31.289 0 15.645 8.3969 0 1 1 31.289 0z" fill="url(#a)" fill-rule="evenodd" opacity=".29947"/>
  <path d="m41.482-17.588v16.994h12.984v8.545l19.96-16.906-20.079-17.025v8.3975l-12.865-0.0053z" fill="url(#b)" fill-rule="evenodd" stroke="#183868" stroke-linecap="round" stroke-linejoin="round" stroke-miterlimit="10"/>
  <path d="m54.89-24.857v7.8065h-12.817v9.0407c17.75 2 16.634-7.4553 31.384-0.95529l-18.566-15.892z" fill="url(#c)" fill-rule="evenodd" opacity=".50802"/>
  <path d="m42.465-16.544v14.984h12.985v7.3952l17.478-14.796-17.494-14.78v7.2014l-12.969-0.0049z" fill="none" opacity=".48128" stroke="#fff" stroke-miterlimit="10"/>
 </g>
</svg>
