<?xml version="1.0" encoding="utf-8"?>
<!-- Generator: Adobe Illustrator 23.0.1, SVG Export Plug-In . SVG Version: 6.00 Build 0)  -->
<svg version="1.1" id="EA_Sports" xmlns="http://www.w3.org/2000/svg" xmlns:xlink="http://www.w3.org/1999/xlink" x="0px" y="0px"
	 viewBox="0 0 1690 1678.7" style="enable-background:new 0 0 1690 1678.7;" xml:space="preserve">
<style type="text/css">
	.st0{fill:url(#Circle-Moving_1_);}
	.st1{fill:#1B5BDD;stroke:#000000;stroke-miterlimit:10;}
	.st2{fill:#FFFFFF;}
	.st3{fill:#FCFAFA;}
	.st4{fill:#F9F7F7;}
	.st5{fill:#F2F2F2;}
	.st6{fill:#F9F4F4;}
</style>
<radialGradient id="Circle-Moving_1_" cx="855.4" cy="1762.6" r="636.25" gradientTransform="matrix(1 0 0 -1 0 2588)" gradientUnits="userSpaceOnUse">
	<stop  offset="0.8416" style="stop-color:#FFFFFF"/>
	<stop  offset="0.8553" style="stop-color:#F4F4F4"/>
	<stop  offset="0.8795" style="stop-color:#D6D6D6"/>
	<stop  offset="0.9114" style="stop-color:#A5A5A5"/>
	<stop  offset="0.9498" style="stop-color:#626262"/>
	<stop  offset="0.9932" style="stop-color:#0E0E0E"/>
	<stop  offset="1" style="stop-color:#000000"/>
</radialGradient>
<ellipse id="Circle-Moving" class="st0" cx="855.4" cy="825.4" rx="636.1" ry="636.4"/>
<g id="EA_Sports-Name">
	<circle id="blue" class="st1" cx="852.1" cy="831.6" r="540.2"/>
	<g id="block">
		<g>
			<path class="st2" d="M931.5,387.5h-301c-6.5,0-12.6,4.8-16.1,12.6l-46,103.8c-3.7,8.3-3.9,18.8-0.5,27.4
				c3.3,8.4,9.6,13.9,16.6,13.9l300.9-0.2c6.5,0,12.6-4.7,16.1-12.5L947.6,429C955.5,411,946.5,387.5,931.5,387.5z M874.9,491.1
				l-256,0.2l22.1-49.8h256L874.9,491.1z"/>
		</g>
	</g>
	<g id="EA">
		<g>
			<path class="st2" d="M1242.1,919l-233-522.6c-7.5-16.7-24.7-16.7-32.1,0L795.5,802.8H636.1l22.6-50h116.8
				c6.5,0,12.6-4.7,16.1-12.5L838,636.5c3.7-8.3,3.9-18.8,0.6-27.4c-3.3-8.6-9.7-14-16.6-14H538.2c-6.5,0-12.6,4.7-16.1,12.5
				l-46.3,103.8c-8,17.9,1.1,41.3,16.1,41.3h33.5L451.2,919c-8,17.9,1.1,41.3,16.1,41.3H593c10.5,0,19-12.1,19-26.9
				s-8.5-26.9-19-26.9h-91.2L576,740.2c8-17.9-1.1-41.3-16.1-41.3h-33.5l22.3-49.9h238.6L765,698.9H648.2c-6.5,0-12.5,4.7-16,12.4
				l-46.9,103.9c-3.7,8.3-4,18.8-0.7,27.5c3.3,8.6,9.7,14,16.7,14H806c6.5,0,12.6-4.7,16.1-12.5l171-383l198.5,445.3h-42.9
				l-40.7-91.3c-3.5-7.8-9.5-12.5-16.1-12.5H988.7l22.3-50h34.6c6.9,0,13.3-5.3,16.6-13.9c3.3-8.6,3.1-19.1-0.6-27.4l-52.5-117.9
				c-3.5-7.8-9.5-12.6-16.1-12.6l0,0c-6.5,0-12.6,4.8-16.1,12.6l-139,313c-163,0,5.4,0.1-156.3,0.1c-10.5,0-19,12.1-19,26.9
				s8.5,26.9,19,26.9c118.6,0,28.5-0.1,166.8-0.1c6.5,0,12.6-4.8,16.1-12.6l128.6-289.5l18,40.5h-10.6c-6.5,0-12.6,4.7-16.1,12.6
				l-46.3,103.9c-8,17.9,1.1,41.3,16.1,41.3h127.2l40.7,91.3c3.5,7.8,9.5,12.5,16.1,12.5h87.9c6.9,0,13.3-5.3,16.6-13.9
				C1246,937.8,1245.8,927.3,1242.1,919z"/>
		</g>
	</g>
	<g>
		<g>
			<path class="st3" d="M488.9,1085.2v-53.5h58v23.4c0,5.9,2.9,10.7,6.4,10.7h14.7c3.5,0,6.4-4.8,6.4-10.7v-10
				c0-42.4-9.6-57.5-36.7-57.5H497c-27.6,0-36.5,14.9-36.5,61.5c0,95.5,10.3,82.3,87.1,82.3v58.5l-57.9,0.2
				c0-43.6,2.4-38.4-22.8-38.1c-3.5,0-6.4,4.8-6.4,10.7c0,48.8,3.5,72.2,36.9,72.2c73.7,0,78.9,8.1,78.9-88.1
				C576.2,1072.1,551.4,1085.2,488.9,1085.2z"/>
		</g>
	</g>
	<g>
		<g>
			<path class="st4" d="M1103.7,987.6h-113c-3.5,0-6.4,4.8-6.4,10.7v22.6c0,5.9,2.9,10.7,6.4,10.7h41.1v192.4
				c0,5.9,2.9,10.7,6.4,10.7h17.8c3.5,0,6.4-4.8,6.4-10.7v-192.4h41.2c3.5,0,6.4-4.8,6.4-10.7v-22.6
				C1110.2,992.4,1107.3,987.6,1103.7,987.6z"/>
		</g>
	</g>
	<g>
		<g>
			<path class="st4" d="M1196.7,1085.2h-50.8v-53.5h58.2v23.4c0,5.9,2.9,10.7,6.4,10.7h14.6c3.5,0,6.4-4.8,6.4-10.7v-10
				c0-41.9-9.9-57.5-36.6-57.5c-67.4,0-77.3-10.7-77.3,82.2c0,46.5,8.8,61.5,36.2,61.5h50.7v58.5h-63.1l0-27.1
				c0-2.8-0.7-5.6-1.9-7.6c-1.2-2-2.8-3.1-4.5-3.1h-16.5c-3.5,0-6.4,4.8-6.4,10.7v10.4c0,24,2.5,38.8,8.1,48.2
				c5.6,9.3,14.4,13.5,28.6,13.5h47.9c27.7,0,36.5-15,36.5-61.7v-26.4C1233.3,1100.8,1224,1085.2,1196.7,1085.2z"/>
		</g>
	</g>
	<g>
		<g>
			<path class="st5" d="M671.9,987.6h-76.6c-3.5,0-6.4,4.8-6.4,10.7v225.8c0,5.9,2.9,10.7,6.4,10.7h18c3.5,0,6.4-4.8,6.4-10.7v-80.7
				h52.1c22.8,0,33.5-16.4,33.5-51.7v-52.6C705.4,1004,694.7,987.6,671.9,987.6z M674.4,1081.5c0,15.9-2.5,18.1-11.7,18.1h-42.9
				v-69.3h42.9c10.1,0,11.7,4.4,11.7,18.4V1081.5z"/>
		</g>
	</g>
	<g>
		<g>
			<path class="st2" d="M809.9,987.4c-70.4,0-93.7-12.7-93.7,61.7v124.1c0,46.1,9.3,61.7,36.8,61.7c71.5,0,93.2,12.7,93.2-61.7V1049
				C846.2,1002.3,837.4,987.4,809.9,987.4z M815.8,1189.6h-68.6v-158h68.6V1189.6z"/>
		</g>
	</g>
	<g>
		<g>
			<path class="st6" d="M984.9,1216l-51.2-72.5h10.7c22.8,0,33.4-16.4,33.4-51.7v-52.6c0-35.1-10.6-51.5-33.4-51.5H868
				c-3.5,0-6.4,4.8-6.4,10.7v225.8c0,5.9,2.9,10.7,6.4,10.7h17.8c3.5,0,6.4-4.8,6.4-10.7v-80.7h2.1l55.6,88.4c2.6,4.1,2.9,3,30.8,3
				C986.7,1234.8,989.5,1222.4,984.9,1216z M892.3,1100.4v-70.1h42.8c8.8,0,11.5,2.5,11.5,17.9c0,47.3,2.3,52.2-11.5,52.2H892.3z"/>
		</g>
	</g>
</g>
<path id="Circle-Stay" d="M1648.9,825.4c0,0-4.9,8.8-10.8,19.5c1.3-10.2,2.4-19.3,2.4-19.3h-55.1v-0.2l-3.7-3.3l0,0l-1-6.6l2.1,0.5
	c0,0,5.7,1.4,5.6-6.7c0-4.1-0.9-5.6-1.7-6c-0.8-0.5-1.5,0.1-1.5,0.1l2.1-4.9c0,0-0.8-2.7-2.5-3.5s-1.2-5.4-1.2-5.4s0.2-0.3,0.4-0.9
	c0.2-0.5,0.5-1.2,0.8-1.9c0.6-1.4,1.2-2.8,1.2-2.8l4-0.5l0.5-3.1l30.1-4l-2.3-5.5l-15.8,2.4l0.1,1.9l-12.6,1.4l-1.1-2.4l1.9-1.1
	l25.8-3.7c0,0-0.3-1.4-0.5-2.8c-0.3-1.4-0.6-2.8-0.6-2.8l-12.6,1.3l-1.2,1.3l-15.2,1.8l-1.4-4.4l0.8-13.8l-4.7-0.1l-1-3.2l-6.7,0.1
	l-8,0.6l-2.9-5.3l1-3.1l-0.3-2.3l5.4,0.8l2.9,1.7l1.9-1.1l1.7-2.3c0,0-0.1-0.8-0.2-2s-0.4-2.7-0.6-4.3c-0.4-3.1-0.9-6.2-0.9-6.2
	l34.6-6.8l0.2,1.2l18-3.2c0,0-0.2-2.2-0.5-4.5c-0.1-1.1-0.2-2.2-0.3-3.1c-0.1-0.8-0.2-1.4-0.2-1.4l-18,3.4c0,0,0,0.3,0.1,0.7
	c0,0.4,0.1,1,0.1,1.5c0.1,1.1,0.1,2.2,0.1,2.2l-33.9,4.7c0,0-0.1-0.6-0.3-1.5c-0.2-0.9-0.4-2.1-0.6-3.3l-1-4.9c0,0,8.4-2.1,16.8-4.1
	c8.4-2.1,16.8-4.2,16.8-4.2l1,1.8l17.9-3.6l-1.9-9.2l-18.4,4l0.9,3.7l-34,6.1c0,0-0.1-0.8-0.4-2.1c-0.2-1.3-0.5-3-0.8-4.7
	c-0.6-3.4-1.3-6.8-1.3-6.8l13.2-3.4l0.4,2.1l12.4-2.3l-1.2-6.1l-11.7,2.3l-0.4,1.6l-13.8,2.1l-0.2-4.5l8.8-1.8c0,0-0.1-0.4-0.2-0.9
	s-0.2-1.2-0.4-1.9c-0.3-1.4-0.6-2.8-0.6-2.8l4.2-0.9l0.3,1.5l12.7-2.6l-1.5-6.7l-8.6,1.2l2.1-3l42.3-10.4l-42.3,8.8l-6.2-3.3
	l4.7-1.7l-1.8-7.5l-5.7,1.7l-1.4-5.9l4.2-1.1c0,0-0.3-1.3-0.8-3.2s-1.2-4.4-1.9-7c-1.4-5-2.7-10.1-2.7-10.1l5.4-1.5
	c0,0-0.4-1.6-0.9-3.3c-0.5-1.6-1-3.3-1-3.3l-8,2.3l-2-3.2l-1-2.3l8.3-2.5l-1.9-6.2l-10.8,3.3c0,0-0.1-0.3-0.2-0.8s-0.3-1.2-0.5-1.8
	c-0.3-1.3-0.7-2.7-0.7-2.7l-2-1.9l-3.5-7.5l2.2-0.7l-0.6-1.7l-2.5,0.8c0,0-0.1-0.5-0.4-1.1c-0.2-0.7-0.6-1.6-0.9-2.5
	c-0.6-1.8-1.3-3.6-1.3-3.6l2.8-1l-0.6-1.7l-4.1,1.4c0,0-1.1-2.3-2.1-4.6c-0.5-1.1-1.1-2.3-1.5-3.1c-0.4-0.9-0.7-1.4-0.7-1.4
	l18.7-6.9c0,0,0.2,0.4,0.5,0.8c0.2,0.4,0.5,0.8,0.5,0.8l15.7-6.4c0,0-0.3-1-0.7-1.9s-0.7-1.9-0.7-1.9l-2.4-0.8l-14.6,5.5l-0.9,1.3
	l-16.9,6l-3-5l17.4-6.6l0.9,1.3l16.1-6.4l-1.8-3.7l-15.9,5.8l-0.8,1.6l-15.2,4.9l-2-2.5l-1.9,0.7c0,0-0.2-0.4-0.6-0.9
	s-0.8-1.3-1.3-2.1c-1-1.5-1.9-3-1.9-3l18.4-7.7l1.4,1.8l13.6-5.4l-2.3-4.8l-1.8-1l-1.6-3.8l-29.3,10.9c0,0-0.5-1.1-0.9-2.2
	c-0.5-1.1-1-2.2-1-2.2l28.1-12l-0.9-2l1.8-0.8l-0.6-1.5l4-1.7l-1.1-2.6l4-1.7l-1.7-3.8l2.7-1.2l-0.8-1.8l2.4-1.1l-0.9-2.1l4.2-1.9
	c0,0-0.5-1.2-1.1-2.4c-0.6-1.2-1.1-2.3-1.1-2.3l2.4-1.1l-6.6-14.1l-10.1-1.6l-8.1,4L1541,476l3-1.5c0,0-0.2-0.4-0.6-1.1
	s-0.9-1.7-1.6-3c-1.3-2.4-3-5.7-4.7-8.9c-0.9-1.6-1.7-3.3-2.5-4.8s-1.6-2.9-2.3-4.1c-1.3-2.4-2.2-4-2.2-4l-2.6,1.5l-3.3-5.8
	l-3.7-0.4l-2.4-3.4l-3.1,0.7l-2.1-4.2l-33.5,19.8c0,0-1.5-2.6-3-5.1c-0.8-1.3-1.5-2.6-2.1-3.5c-0.6-1-1-1.6-1-1.6l6.5-4l-1.1-1.8
	l7.3-4.6l-1.3-2.1l6.2-3.9l2.4-9l2.9-1.9c0,0-0.5-0.8-1-1.5c-0.5-0.8-1-1.5-1-1.5l-2.8,1.8l-7.9-1.4l-6.8,4.5c0,0-0.9-1.4-2.3-3.5
	s-3.2-4.9-5.1-7.7c-3.8-5.5-7.6-11-7.6-11l48.4-34.1c0,0-0.6-0.8-1.1-1.6c-0.6-0.8-1.1-1.6-1.1-1.6l5.7-4l-5.3-7.3l6.7-4.9
	c0,0-0.4-1-1.5-2.9c-0.5-0.9-1.2-2-2-3.4c-0.8-1.3-1.9-2.8-3.1-4.4c-4.9-6.4-7.9-7.1-7.9-7.1l-6.2,3.9c0,0-1.2-1.6-2.4-3.2
	c-0.6-0.8-1.2-1.6-1.7-2.2s-0.8-1-0.8-1l-5,3.9l-2.7-3.3l-36.1,28.9l-1-1.2l-10.4,8.3l-4-5l3.6-2.9l-1.7-2.2l25.7-21.1
	c0,0-0.4-0.5-0.8-1s-0.8-1-0.8-1l0.5-4.6l-4.8-5.7l-3.5-0.2l-2.6-3.1l-4.7,4l-6.4-7.2l-8.9,7.9l-1.3-1.4l4-3.5c0,0-2.4-2.7-4.7-5.3
	c-2.4-2.6-4.9-5.2-4.9-5.2l-1.7,1.6c0,0-2.2-2.4-4.4-4.7c-1.1-1.2-2.2-2.4-3-3.3c-0.9-0.9-1.4-1.4-1.4-1.4l-5.5,5.3l-1.7-1.8
	l-10.8,10.4l-5.1-5.3l14-13.8l-4.2-4.3l1.4-1.4l-5.4-5.3l-1.4,1.4l-4.3-4.2l-5.1,5.3l-3.1-3.1c-1.6-1.5-3.2-3-3.2-3l-2.5,2.7
	l-3.6-3.4l33.8-36.2l-0.8-1.6l3.4-3.7l4-5.8l-1.2-5.2l1.1-2.1c0,0-0.9-0.8-1.7-1.6c-0.9-0.8-1.8-1.6-1.8-1.6l-1.6,1.7l-2-1.3
	l-13.6,13.7l0.9-5.4l5.1-5.7l-3.7-3.3l-5,5.7c0,0-4.3,1.5-8.6,3c-2.1,0.8-4.3,1.6-5.9,2.2c-1.6,0.6-2.7,1-2.7,1l-1.7-1L1355,241
	l-5.5-4.6c-1.4-1.2-2.7-2.3-3.8-3.2c-1-0.9-1.7-1.4-1.7-1.4l3-3.1l-2-2.1l5.5-6.7l-4.5-3.6l-5,6.2l-3-2.4l-3.3,4.2
	c0,0-1.7-1.4-3.4-2.7c-0.8-0.7-1.7-1.4-2.4-1.9c-0.7-0.5-1.1-0.8-1.1-0.8l13.8-18.2L1331,203l4.7,2.7l-9.2,12.2l-5.6-4.3l2-2.6
	l-2.3-1.7l6.2-8.2c0,0-1.3-1-2.6-2c-1.3-1-2.6-1.9-2.6-1.9l-5.7,7.7l-3.1-2.3l-2.6,3.5l-2.1-1.5l-1.8,2.5c-1.4,0-4,0-6.7-0.1
	s-5.5-0.2-7.1-0.5c-3.1-0.5-9.6-1.4-13-1.9c0,0-1.5-1-3-2.1c-1.5-1-3-2-3-2l1.5-2.2l-7.3-4.8l-1.5,2.2l-4.9-3.2l-4.5,7
	c0,0-0.6-0.8-1.6-2.1s-2.4-3.1-3.9-5c-3.1-3.9-6.8-8.7-9.5-11.5c-2.6-2.9-7.2-7.4-11.2-11.1c-4-3.6-7.4-6.6-7.4-6.6l3-6
	c0,0-1.9-1-3.7-2.1c-0.9-0.5-1.9-1-2.6-1.4s-1.2-0.6-1.2-0.6l-10.5-11.9c0,0-0.8-0.4-2-1s-2.8-1.4-4.4-2.2c-3.2-1.6-6.4-3.2-6.4-3.2
	l-1.5,3c0,0-0.7-0.5-1.9-1.5c-1.2-1-3-2.4-5.2-4s-4.8-3.5-7.6-5.6c-2.8-2.1-5.8-4.4-9-6.5c-6.3-4.4-12.9-9.1-18.7-12.8
	c-5.7-3.7-10.3-6.8-12.6-8c-1.8-1.1-4.6-2.6-7.8-4.3c-3.2-1.7-6.9-3.6-10.6-5.4c-1-1-1.9-2.1-2.9-3.1c-2.1-2.3-4.1-4.4-5.9-6.4
	c-0.9-1-1.8-1.9-2.6-2.8c-0.8-0.9-1.6-1.7-2.3-2.4c-2.8-3-4.6-4.8-4.6-4.8l-1.2,1.2c0,0,1.7,1.8,4.5,4.8c2.8,2.9,6.6,7.1,10.7,11.6
	c-4.6-2.2-9-4.4-12.3-5.8c-3.3-1.5-5.4-2.4-5.4-2.4l-17,52.2h-0.2l-4.3,2.5c-0.3,0-1.7-0.3-3.2-0.6c-0.8-0.1-1.6-0.3-2.2-0.4
	c-0.6-0.1-1-0.2-1-0.2l1.1-1.8c0,0,3.1-5-4.7-7.3c-7.8-2.3-6.6,1.1-6.6,1.1l-4-3.6c0,0-2.8-0.1-4.1,1.3c-1.3,1.4-5.5-0.5-5.5-0.5
	l-4.6-4l0.7-3.9l-2.8-1.4l5.4-29.8l-6,0.6l-2.6,15.8l1.8,0.4l-2.5,12.4l-2.6,0.4l-0.4-2.2l4.4-25.6l-5.7-0.7l-2.6,12.4l0.9,1.6
	l-3,15l-4.6-0.1c0,0-0.8-0.3-2-0.8s-2.8-1.1-4.4-1.7c-3.2-1.2-6.4-2.4-6.4-2.4l-1.6,4.4l-3.4-0.1l-1.9,6.4l-1.9,7.7
	c0,0-1.5,0.3-3,0.6c-1.5,0.3-3,0.6-3,0.6l-2.6-1.9l-2.3-0.4l2.5-4.9l2.5-2.2l-0.5-2.1l-1.7-2.3c0,0-3.1-0.6-6.2-1.2
	c-1.5-0.3-3.1-0.6-4.3-0.8c-1.2-0.2-1.9-0.3-1.9-0.3l4.2-35l1.2,0.2l2.5-18.1l-8.8-1.8l-2.3,18.2l4.3,1l-5.9,33.7
	c0,0-2.5-0.3-4.9-0.6c-1.2-0.2-2.5-0.3-3.4-0.4s-1.5-0.2-1.5-0.2s0.6-8.6,1.2-17.3c0.6-8.6,1.2-17.3,1.2-17.3l2-0.4l2.1-18.2l-9.3-1
	l-2,18.9l3.8,0.2l-4.6,34.3c0,0-3.4-0.5-6.8-1c-1.7-0.2-3.4-0.5-4.7-0.7s-2.1-0.3-2.1-0.3l0.8-13.6l2.1,0.2l1.6-12.5l-6.2-0.7
	l-1.4,11.9l1.4,0.8l-2.3,13.8l-4.4-1.2l1-8.9l-5.7-0.7l0.5-4.3l1.5,0.2l1.4-12.9c0,0-1.7-0.2-3.4-0.4c-1.7-0.2-3.4-0.3-3.4-0.3
	l-1.5,8.5l-2.2-2.9l3.1-43.5l-4.6,43l-5.1,4.9l-0.2-5l-3.8-0.3c-1-0.1-1.9-0.2-2.6-0.2c-0.7,0-1.2-0.1-1.2-0.1l-0.1,6l-6.1-0.4
	l0.3-4.3c0,0-5.2-0.3-10.4-0.7c-2.6-0.2-5.2-0.2-7.2-0.3c-2-0.1-3.3-0.1-3.3-0.1l0.2-5.6l-6.8-0.3l-0.2,8.3c0,0-0.9,0.2-1.9,0.4
	c-0.9,0.2-1.8,0.4-1.8,0.4l-2.5,0.3l0.2-8.6l-6.5-0.1l-0.2,11.3l-5.5-0.4l-2.4,1.3c0,0-2.1,0.2-4.1,0.5c-2.1,0.3-4.1,0.6-4.1,0.6
	v-2.3h-1.8v2.7l-7.6,0.1l-0.1-3h-1.8l0.1,4.3c0,0-0.6,0.1-1.6,0.2c-0.9,0.1-2.2,0.3-3.4,0.5c-2.5,0.3-5,0.7-5,0.7l-0.7-19.9l1.9-0.4
	l-1.2-16.9l-4.1,0.2l-1.5,2l0.7,15.6l1,1.3l0.4,17.9l-6,0.9l-1-18.6l1.5-0.4l-1.1-17.3c0,0-1,0.1-2.1,0.2c-1,0.1-2,0.3-2,0.3l0.6,17
	l1.3,1.3l-0.1,16l-3,1.2l0.1,2l-6.8,1.8l-1.6-19.9l2.1-0.8L806,62.2l-5.3,0.7l-1.5,1.4c0,0-1,0.1-2,0.1c-1,0.1-2,0.2-2,0.2l1.3,31.3
	l-4.8,0.4L789,65.8l-2.2,0.2l-0.2-2l-1.6,0.1l-0.4-4.3l-2.8,0.3l-0.4-4.3l-4.1,0.4l-0.3-3l-1.9,0.2l-0.3-2.6l-2.2,0.3l-0.5-4.6
	l-5.1,0.6l-0.3-2.6c0,0-3.9,0.4-7.7,0.9c-1,0.1-1.9,0.2-2.8,0.3c-0.9,0.1-1.7,0.2-2.5,0.3c-1.4,0.2-2.4,0.3-2.4,0.3l-4.6,9l1.3,8.9
	c0,0-3.1,0.4-6.1,0.9c-1.5,0.2-3.1,0.4-4.2,0.6c-1.1,0.2-1.9,0.3-1.9,0.3l-0.5-3.3c0,0-7.3,1.2-14.5,2.4c-7.2,1.4-14.5,2.7-14.5,2.7
	l0.6,2.9c0,0-1.6,0.3-3.3,0.6c-0.8,0.2-1.6,0.3-2.2,0.4c-0.6,0.1-1,0.2-1,0.2l-1.6,3.4l-4,1.2l-0.3,3.1l-4.7,0.7l8.5,38
	c0,0-2.9,0.6-5.8,1.3c-2.9,0.7-5.8,1.4-5.8,1.4l-1.8-7.4l-2.1,0.5l-2-8.4l-2.4,0.6l-1.8-7.1l-7.8-5.1l-0.9-3.4c0,0-0.9,0.2-1.7,0.4
	c-0.9,0.2-1.7,0.5-1.7,0.5l0.8,3.2l-3.8,7l2.1,7.9c0,0-1.6,0.4-4,1.1s-5.7,1.5-8.9,2.5c-6.4,1.9-12.8,3.8-12.8,3.8l-17.4-56.6
	c0,0-1,0.3-1.9,0.6s-1.9,0.6-1.9,0.6l-2.1-6.7l-8.6,2.8l-2.6-7.9c0,0-1.1,0.1-3.2,0.5c-2.1,0.4-5.1,1.1-9,2.5
	c-7.7,2.7-9.2,5.4-9.2,5.4l1.8,7.1c0,0-1.9,0.7-3.8,1.3c-0.9,0.3-1.9,0.7-2.6,1c-0.7,0.3-1.2,0.4-1.2,0.4l2.2,5.9l-4,1.5l16.3,43.3
	l-1.5,0.6l4.7,12.4l-6,2.3l-1.7-4.3l-2.6,1L571,100c0,0-0.6,0.2-1.2,0.5c-0.6,0.2-1.2,0.5-1.2,0.5l-4.2-1.9l-6.9,2.8l-1.3,3.2
	l-3.7,1.5l2.4,5.7l-8.8,3.8l4.8,11l-1.7,0.8L547,123c0,0-3.3,1.4-6.5,2.9s-6.5,3-6.5,3l1,2.1c0,0-2.9,1.4-5.9,2.7
	c-1.5,0.7-2.9,1.4-4,1.9c-0.6,0.3-1,0.5-1.3,0.6c-0.3,0.2-0.5,0.3-0.5,0.3l3.3,6.9l-2.2,1.1l6.6,13.4l-6.6,3.3l-8.8-17.5l-5.4,2.7
	l-0.9-1.8c0,0-0.4,0.2-1.1,0.5c-0.6,0.3-1.5,0.8-2.3,1.2c-1.7,0.9-3.4,1.8-3.4,1.8l0.9,1.8l-5.3,2.8l3.4,6.4c0,0-1.9,1-3.9,2
	c-1,0.5-1.9,1-2.6,1.4s-1.2,0.7-1.2,0.7l1.8,3.2l-4.3,2.4l-24.1-43.3l-1.8,0.2l-2.4-4.4l-4.3-5.6l-5.3-0.5l-1.7-1.7
	c0,0-1,0.6-2.1,1.2c-1,0.6-2.1,1.2-2.1,1.2l1.2,2l-1.9,1.5l8.8,17.2l-4.9-2.5l-3.9-6.6l-4.3,2.6l3.9,6.6c0,0,0.1,4.6,0.3,9.1
	c0.1,4.5,0.4,9.1,0.4,9.1l-1.5,1.3l8.5,13.9l-12.1,7.6l-2.1-3.8c0,0-0.7,0.3-1.3,0.6c-0.6,0.3-1.3,0.7-1.3,0.7l-4.7-7.3l-4.9,3.2
	l4.4,6.7l-3.2,2.1l2.9,4.4c0,0-1.8,1.2-3.7,2.4c-1.8,1.2-3.6,2.4-3.6,2.4l-13-18.7l-1,10.8l4-3.6l8.7,12.5l-5.8,4l-1.9-2.7l-2.4,1.6
	l-5.9-8.4c0,0-1.3,0.9-2.7,1.8c-1.3,0.9-2.6,1.9-2.6,1.9l5.6,7.8l-3.1,2.3l2.5,3.5l-2.1,1.5l1.8,2.5c-0.8,2.6-3.3,10-4.8,13
	c-1.4,2.8-4.3,8.7-5.8,11.8c0,0-1.4,1.1-2.9,2.2c-1.5,1.1-2.9,2.3-2.9,2.3l-1.7-2.1l-6.8,5.5l1.7,2.1l-4.6,3.7l5.3,6.4
	c0,0-1,0.3-2.5,0.9c-1.5,0.6-3.6,1.3-6,2.2c-2.3,0.9-4.9,1.8-7.4,2.8c-1.2,0.5-2.4,0.9-3.5,1.4s-2.1,0.9-3,1.3
	c-3.6,1.6-9.2,4.6-14,7.2c-4.7,2.7-8.5,5-8.5,5l-4.8-4.6l-6.2,5.8l-14.6,6.4c0,0-2.6,2.5-5.1,5.1s-5,5.1-5,5.1l2.4,2.3
	c0,0-0.7,0.5-2,1.4s-3.2,2.1-5.4,3.7c-2.2,1.6-4.8,3.4-7.7,5.5c-2.8,2-5.9,4.2-9,6.6c-6.1,4.7-12.6,9.5-17.9,13.8s-9.6,7.7-11.5,9.5
	c-1.6,1.4-3.9,3.6-6.5,6.1s-5.6,5.4-8.4,8.4c-1.3,0.6-2.6,1.2-3.8,1.8c-5.6,2.6-10.8,4.9-14.4,6.7c-3.7,1.7-6,2.8-6,2.8l0.7,1.5
	c0,0,2.3-1.1,5.9-2.8c3.6-1.8,8.7-4.1,14.3-6.6c-3.6,3.7-7,7.2-9.3,9.9c-2.4,2.6-3.9,4.3-3.9,4.3l44.5,32.4l-0.2,0.2l1,4.8l0,0
	c-0.1,0.2-0.8,1.5-1.6,2.9c-0.8,1.5-1.5,3-1.5,3l-1.4-1.6c0,0-3.7-4.5-8.4,2.2c-4.7,6.7-1,6.7-1,6.7s-1.2,0.7-2.3,1.3
	c-1.2,0.7-2.3,1.4-2.3,1.4s-0.9,2.6-0.1,4.3c0.9,1.7-2.2,5.1-2.2,5.1l-5.2,3.1l-3.5-1.9c0,0-0.6,0.5-1.1,1.1s-1.1,1.1-1.1,1.1
	L207.9,416l-1.3,5.9l14.2,7.4l1-1.6l11,6.2l-0.4,2.6l-2.2-0.3l-23-12.1l-2.4,5.2l10.9,6.3l1.8-0.4l13.4,7.5c0,0-0.4,1.1-0.8,2.2
	c-0.4,1.1-0.8,2.2-0.8,2.2l-8.6,10.7l3.7,2.9c0,0-0.3,0.8-0.6,1.6c-0.3,0.8-0.5,1.6-0.5,1.6l5.5,3.8l6.8,4.2l-0.7,6l-2.6,1.9
	l-1.2,2.1l-3.9-3.9l-1.3-3.1l-2.2-0.2l-2.8,0.9c0,0-0.4,0.7-1,1.7s-1.4,2.4-2.1,3.8c-1.5,2.8-2.9,5.6-2.9,5.6l-32-14.9l0.6-1.1
	l-16.5-8l-4.5,7.8l16.6,7.8l2.3-3.7l30.2,16.1c0,0-1.1,2.2-2.2,4.5c-1,2.2-2.1,4.5-2.1,4.5s-8-3.3-16.1-6.5
	c-8-3.2-16.1-6.5-16.1-6.5l0.2-2l-16.6-7.6l-3.9,8.5l17.3,7.7l1.4-3.5l31.1,15c0,0-1.5,3.1-3.1,6.2c-1.5,3.1-2.9,6.2-2.9,6.2
	l-12.7-5l0.9-1.9l-11.4-5.4l-2.6,5.6l10.9,5l1.2-1.1l12.4,6.4l-2.5,3.8l-8.2-3.7c0,0-0.6,1.3-1.2,2.6c-0.6,1.3-1.2,2.6-1.2,2.6
	l-3.9-1.8l0.6-1.4l-11.8-5.3l-2.7,6.3l7.7,4l-3.4,1.2l-40.4-16.4l39.4,17.7l3,6.3l-4.8-1.4l-2.9,7.1l5.6,2l-2.3,5.7l-4-1.6
	c0,0-0.5,1.2-1.2,3c-0.8,1.8-1.6,4.3-2.6,6.7c-1.9,4.9-3.7,9.8-3.7,9.8l-5.3-2c0,0-0.6,1.6-1.2,3.2c-0.6,1.6-1.1,3.2-1.1,3.2
	l7.8,2.8l-0.3,3.8l-0.5,2.4l-8.2-2.9l-2.2,6.1l10.7,3.6c0,0-0.1,0.3-0.3,0.8s-0.4,1.1-0.7,1.8c-0.5,1.3-1,2.6-1,2.6l0.5,2.7
	l-1.6,8.1l-2.2-0.7l-0.6,1.7l2.5,0.8c0,0-0.2,0.4-0.4,1.1s-0.5,1.6-0.7,2.5c-0.5,1.8-1.1,3.6-1.1,3.6l-2.9-0.9l-0.5,1.8l4.1,1.2
	l-1.9,9.9l-19.2-5.4c0,0,0-0.5,0.1-0.9s0.1-0.9,0.1-0.9l-16.5-4.1c0,0-0.3,1-0.6,2c-0.3,1-0.5,2-0.5,2l1.5,2.1l15.1,4.2l1.5-0.5
	l17.2,5.1l-0.5,5.8l-18-4.8l0.1-1.6l-16.8-4.2l-0.8,4.1l16.3,4.6l1.6-0.9l15.2,5l0.2,3.2l1.9,0.5c0,0,0,0.4-0.1,1.1
	c0,0.7-0.1,1.5-0.2,2.4c-0.1,1.8-0.2,3.5-0.2,3.5l-19.4-4.6l-0.1-2.3l-14.2-3.6l-1,5.3l0.9,1.9l-1,4l30.1,8.4c0,0-0.3,1.2-0.6,2.3
	c-0.3,1.2-0.5,2.4-0.5,2.4l-29.8-6.8l-0.5,2.2l-1.9-0.4l-0.3,1.5l-4.2-0.9l-0.6,2.8l-4.2-0.9l-0.9,4.1l-2.9-0.6l-0.4,1.9l-2.6-0.5
	l-0.5,2.2l-4.6-1c0,0-0.3,1.3-0.6,2.5c-0.2,1.3-0.5,2.5-0.5,2.5l-2.6-0.5l-2.9,15.3c0,0,0.4,0.4,1.1,1.1c0.7,0.7,1.6,1.6,2.5,2.5
	c1.8,1.8,3.6,3.6,3.6,3.6l8.8,1.5l-2,12.2L93,705c0,0-0.1,0.5-0.2,1.2s-0.3,1.9-0.5,3.3c-0.4,2.7-0.9,6.4-1.4,10s-1.1,7.3-1.3,10
	c-0.3,2.7-0.5,4.6-0.5,4.6l3,0.4l-0.8,6.6l2.7,2.5c0,0,0,1-0.1,2.1c0,0.5,0,1,0,1.4s0,0.6,0,0.6l2.9,1.2l-0.7,4.7l38.7,3.6
	l-1.1,11.9l-7.6-0.6c0,0,0,0.5-0.1,1.1c0,0.5-0.1,1.1-0.1,1.1l-8.6-0.6l-0.2,2.4l-7.3-0.5l-7.2,5.9l-3.5-0.2l-0.2,3.6l3.3,0.2
	c0,0,1.4,1.4,2.7,2.9c1.4,1.4,2.7,2.9,2.7,2.9l8.1,0.4c0,0-0.3,6.7-0.5,13.4c-0.1,1.7-0.1,3.3-0.2,4.9c0,1.6,0,3-0.1,4.3
	c0,2.5-0.1,4.2-0.1,4.2l-59.2-0.9l-0.1,4l-7-0.1c0,0,0,2.3-0.1,4.5c0,1.1,0,2.2,0,3.1c0,0.8,0,1.4,0,1.4h-8.3c0,0-0.9,4.4-0.8,12.5
	c0.1,8.1,2.2,10.4,2.2,10.4l7.3,0.5l0.3,8l6.3-0.3l0.2,4.3l46.2-2.1l0.1,1.6l13.3-0.6c0,0,0.1,1.6,0.1,3.2c0.1,1.6,0.2,3.2,0.2,3.2
	l-4.6,0.3l0.2,2.8l-33.2,2l0.2,2.6l-3.1,3.4l0.5,7.4l2.7,2.2l0.4,4l6.1-0.5l0.9,9.6l11.9-1.2l0.2,1.9l-5.3,0.5c0,0,0.1,0.9,0.2,2.2
	c0.2,1.3,0.4,3.1,0.6,4.9c0.4,3.5,0.8,7.1,0.8,7.1l2.3-0.3c0,0,0.4,3.2,0.7,6.4c0.4,3.2,0.9,6.4,0.9,6.4l7.6-1l0.3,2.5l14.8-2.1
	l1,7.3l-19.4,2.9c0,0,0.2,1.5,0.4,3c0.2,1.5,0.5,3,0.5,3l-2,0.3l1.2,7.5l2-0.3l1,5.9l7.2-1.3c0,0,0.1,0.5,0.2,1.3s0.3,1.9,0.5,3
	l0.8,4.3l3.6-0.7l0.9,4.9l-48.6,9.4l-0.3,1.8l-4.9,1l-6.7,2.3l-2.1,4.9l-2.2,1.1c0,0,0.2,1.2,0.5,2.3c0.2,1.2,0.5,2.3,0.5,2.3
	L57,994l0.8,2.2l19.1-3.1L73,997l-7.5,1.6l1.1,4.9l7.5-1.7c0,0,4.4,1.3,8.7,2.6c4.4,1.2,8.8,2.5,8.8,2.5l0.8,1.8l15.8-3.8
	c0,0,0.9,3.5,1.7,6.9c0.4,1.7,0.8,3.5,1.2,4.8c0.2,0.7,0.3,1.2,0.4,1.6c0.1,0.4,0.2,0.6,0.2,0.6l-4.3,0.8l0.4,2.9l-8.4,2.2l1.5,5.6
	l7.7-2.1l1,3.7l5.1-1.4l1.1,4.2c0.3,1.1,0.6,2.1,0.8,2.9c0.2,0.8,0.4,1.3,0.4,1.3l-21.8,6.6l9.9,4.3l-2.2-4.9l14.6-4.4l2,6.8l-3.2,1
	l0.8,2.7l-9.9,3c0,0,0.5,1.6,0.9,3.1c0.2,0.8,0.5,1.5,0.7,2.1s0.3,1,0.3,1l9.2-2.9l1.2,3.6l4.1-1.3l0.8,2.4l3-1
	c2.2,1.6,8.5,6.2,10.8,8.6c2.2,2.2,7,6.8,9.5,9.1c0,0,0.6,1.7,1.2,3.4c0.6,1.7,1.3,3.4,1.3,3.4l-2.5,0.9l3.1,8.2l2.5-0.9l2.1,5.5
	l7.7-3c0,0,0,1,0,2.6c0.1,1.6,0.1,3.9,0.2,6.4c0.1,2.5,0.2,5.2,0.4,7.9c0.1,2.6,0.3,5.1,0.5,7c0.4,3.9,1.5,10.2,2.6,15.5
	s2.2,9.7,2.2,9.7l-5.9,3.1l3.6,7.7c0,0,0.1,1,0.2,2.5c0.1,1.5,0.3,3.5,0.5,5.4l0.8,7.9c0,0,0.4,0.8,1,2s1.4,2.8,2.3,4.4
	c1.7,3.2,3.3,6.3,3.3,6.3l2.9-1.6c0,0,1,3.4,2.5,8.6c1.7,5.2,3.9,12.2,6.3,19.6c1.3,3.7,2.6,7.4,3.9,11c0.6,1.8,1.3,3.6,1.9,5.3
	c0.7,1.7,1.3,3.4,1.9,5c2.4,6.3,4.4,11.5,5.5,13.9c0.9,1.9,2.2,4.8,3.8,8c0.8,1.6,1.7,3.4,2.6,5.2c0.5,0.9,0.9,1.8,1.4,2.7
	c0.5,0.9,1,1.8,1.4,2.7c0.2,1.4,0.3,2.8,0.5,4.2c0.8,6.1,1.4,11.8,1.9,15.8c0.5,4.1,0.9,6.6,0.9,6.6l1.7-0.2c0,0-0.3-2.5-0.9-6.5
	c-0.1-1-0.3-2.1-0.4-3.3c-0.1-1.2-0.3-2.5-0.4-3.8c-0.3-2.6-0.7-5.6-1-8.6c1.2,2.3,2.4,4.5,3.5,6.5s2.1,3.9,3,5.4
	c1.8,3.1,2.9,5.1,2.9,5.1l44.5-32.3l0.2,0.2l4.9,0.5l4.6,4.7l-2,0.8c0,0-5.5,2.2-0.5,8.7s6,3,6,3l1.1,5.3c0,0,2.2,1.7,4.1,1.4
	c1.9-0.3,4.2,3.6,4.2,3.6l1.3,5.9l-2.9,2.8l1.4,2.8l-21.9,21l5.2,3.1l11.4-11.2l-1.2-1.4l9.3-8.6l2.3,1.2l-0.9,2l-18.6,18.2l4.2,3.9
	l9.4-8.5l0.2-1.8l11.2-10.4l3.7,2.8l7.5,11.5l3.9-2.7l2.7,2l5.3-4l6.1-5.1l5.5,2.5l1,3.1l1.6,1.7l-4.9,2.5l-3.4,0.3l-0.9,2v2.9
	c0,0,2.1,2.3,4.3,4.6c2.2,2.3,4.4,4.5,4.4,4.5l-24,25.9l-0.9-0.9l-12.7,13.2l6.1,6.7l12.5-13.3l-2.8-3.4l24.6-23.8
	c0,0,1.8,1.7,3.6,3.4c0.9,0.9,1.8,1.7,2.5,2.3c0.7,0.6,1.1,1,1.1,1s-5.6,6.6-11.2,13.3c-5.6,6.6-11.1,13.3-11.1,13.3l-1.8-0.8
	L309,1380l6.9,6.3l12.7-14.1l-2.9-2.4l23.9-25c0,0,2.5,2.4,4.9,4.8c1.2,1.2,2.5,2.4,3.5,3.3c0.9,0.9,1.6,1.5,1.6,1.5l-8.7,10.6
	l-1.6-1.5l-8.7,9.2l4.5,4.2l8.1-8.8l-0.7-1.5l9.9-9.8l2.8,3.6l-6.1,6.6l2.1,2c1.1,1,2.2,1.9,2.2,1.9l-2.9,3.2l-1.1-1l-8.7,9.6
	l5.1,4.5l6.2-6l0.1,3.6l-28.1,33.3l29-32l6.9-0.9l-2.8,4.2l5.9,5l3.6-4.8l4.7,3.9l-2.8,3.3c0,0,4,3.4,8.1,6.6
	c4.1,3.3,8.1,6.6,8.1,6.6l-3.5,4.4c0,0,1.3,1.1,2.7,2.1c1.4,1,2.7,2.1,2.7,2.1l5.1-6.6l3.5,1.5l2.1,1.2l-5.2,6.9l5.2,4l6.8-9.1
	l4.2,3.5l2.8,0.4l7.2,4l-1.4,1.9l1.5,1.1l1.5-2.2l6.2,4.3l-1.7,2.5l1.5,1l2.5-3.6c0,0,2.2,1.2,4.4,2.4c1.1,0.6,2.2,1.2,3,1.7
	c0.8,0.4,1.4,0.7,1.4,0.7l-11.1,16.6l-1.7-0.8l-9,14.4l3.5,2.3l2.4-0.8l8.6-13v-1.6l10.2-14.8l5.4,2.3l-10.2,15.6l-1.5-0.6
	l-9.2,14.6l3.6,2l9.5-14.1l-0.3-1.8l9.5-12.9l3.1,0.8l1.1-1.7c0,0,0.4,0.2,1,0.4c0.6,0.2,1.4,0.6,2.3,0.9c1.6,0.6,3.3,1.3,3.3,1.3
	l-10.3,17.1l-2.2-0.6l-7.8,12.4l4.7,2.6l2-0.3l3.5,2.2l17.4-26c0,0,1,0.6,2.1,1.3c1,0.6,2.1,1.2,2.1,1.2l-15.8,26.2l1.9,1.1l-1,1.7
	l1.4,0.8l-2.2,3.7l2.5,1.5l-2.2,3.7l3.6,2.1l-1.5,2.6l1.7,1l-1.3,2.3l1.9,1.1l-2.3,4l4.5,2.5l-1.3,2.3c0,0,3.4,1.9,6.8,3.8
	c1.7,1,3.4,1.9,4.7,2.6c1.3,0.7,2.1,1.1,2.1,1.1l9.1-4.6l4.2-7.9c0,0,2.7,1.4,5.5,2.9c1.4,0.7,2.7,1.4,3.8,2c1,0.5,1.7,0.9,1.7,0.9
	l-1.5,3l13.2,6.5c1.6,0.8,3.3,1.6,4.9,2.3c1.6,0.7,3,1.4,4.3,2c2.5,1.2,4.2,1.9,4.2,1.9l1.3-2.7l6.1,2.8l3.3-1.8l3.9,1.3l2.1-2.4
	l4.2,2.2l15.5-35.7c0,0,2.7,1.2,5.5,2.4c2.8,1.1,5.5,2.3,5.5,2.3l-2.9,7.1l2,0.8l-3.3,8l2.3,0.9l-2.7,6.8l3.4,8.7l-1.3,3.2
	c0,0,0.8,0.4,1.7,0.7c0.8,0.3,1.7,0.6,1.7,0.6l1.2-3.1l7.2-3.5l2.9-7.6c0,0,1.6,0.6,3.9,1.5c2.4,0.9,5.5,2.1,8.6,3.2
	c6.3,2.2,12.7,4.4,12.7,4.4l-19.1,56c0,0,0.9,0.3,1.9,0.7c0.9,0.3,1.9,0.6,1.9,0.6l-2.2,6.6l8.6,2.8l-2.6,7.9c0,0,1,0.6,2.9,1.5
	s4.8,2.1,8.7,3.3c7.8,2.3,10.6,1.1,10.6,1.1l2.7-6.8c0,0,1.9,0.6,3.8,1.1c1,0.3,1.9,0.6,2.7,0.7c0.7,0.2,1.2,0.3,1.2,0.3l1.7-6.1
	l4.2,1.1l12.2-44.6l1.5,0.4l3.5-12.8l6.2,1.7l-1.2,4.5l2.7,0.7l-8.3,32.2c0,0,0.6,0.2,1.2,0.3c0.6,0.2,1.3,0.3,1.3,0.3l2.3,4
	l7.2,1.8l2.9-1.8l3.9,0.9l1.4-6c0,0,0.6,0.2,1.5,0.3c0.9,0.2,2,0.4,3.2,0.7c2.3,0.5,4.7,1,4.7,1l2.6-11.7l1.8,0.4l-1.1,5.2
	c0,0,3.5,0.8,7,1.5c1.7,0.4,3.5,0.7,4.8,1s2.2,0.4,2.2,0.4l0.4-2.3l12.7,2.4l1.3-7.5c0,0,0.6,0.1,1.2,0.2c0.6,0.1,1.2,0.2,1.2,0.2
	l2.6-14.7l7.3,1.2l-3.2,19.4l5.9,1l-0.3,2c0,0,1.9,0.3,3.7,0.6c1.9,0.3,3.8,0.5,3.8,0.5l0.3-2l5.9,0.8l1-7.2l8.7,1.2l0.5-3.6
	l4.9,0.6l-5.9,49.2l1.6,0.8l-0.6,5l0.2,7l4,3.5l0.4,2.4l4.7,0.5l0.2-2.3l2.4-0.1l2.9-19.1l2.5,4.9l-0.7,7.6l5,0.4l0.7-7.6
	c0,0,2.6-3.8,5.1-7.6c2.5-3.8,5.1-7.6,5.1-7.6l2-0.2l1.3-16.2c0,0,0.9,0.1,2.2,0.2s3.1,0.2,4.9,0.3c3.6,0.2,7.1,0.4,7.1,0.4
	l-0.6,4.3l2.9,0.5l-0.5,8.6c0,0,1.4,0.1,2.9,0.2c0.7,0.1,1.4,0.1,2,0.1s0.9,0,0.9,0l0.4-8l3.8,0.1l0.2-5.3l8.8,0.3l-0.5,22.8
	c0,0,1.8-2,3.6-4s3.6-4.1,3.6-4.1s-0.3,0-0.8,0.1s-1.2,0.1-1.8,0.2c-1.3,0.1-2.7,0.3-2.7,0.3l0.3-15.3c0,0,1.8,0.1,3.5,0.1
	c1.8,0,3.5,0.1,3.5,0.1l-0.1,3.3h2.9l-0.2,10.3l6.5,0.1l0.1-9.6h3.8v-4.3h2.5v-3.1c2.2-1.6,8.5-6.3,11.5-7.7
	c1.4-0.7,3.5-1.8,5.7-2.9c1.1-0.6,2.2-1.1,3.2-1.7s1.9-1.1,2.7-1.5l7.3-0.3l0.1,2.7l8.7-0.3l-0.1-2.7l5.9-0.4l-0.5-8.3
	c0,0,3.9,1.1,8.6,2.6c4.8,1.5,10.6,2.9,14.4,3.7c3.8,0.8,10.2,1.8,15.6,2.4c5.4,0.6,9.9,1,9.9,1l1.1,6.6c0,0,2.1-0.2,4.2-0.5
	c2.1-0.3,4.2-0.6,4.2-0.6l15.6,3.5l14.1-2.3l-0.6-3.3c0,0,0.9,0,2.4,0.1c1.6,0.1,3.8,0.1,6.5,0.1s5.9,0.1,9.4,0.1c1.8,0,3.6,0,5.4,0
	c1.9,0,3.8,0,5.7-0.1c3.9-0.1,7.8-0.1,11.7-0.2c1,0,1.9,0,2.9-0.1c0.9,0,1.9-0.1,2.8-0.1c1.8-0.1,3.6-0.2,5.3-0.2
	c6.8-0.3,12.3-0.6,14.9-0.9c2.1-0.2,5.2-0.6,8.8-1.1s7.7-1.1,11.8-1.8c1.4,0.3,2.8,0.6,4.1,0.8c3,0.6,5.9,1.2,8.6,1.7
	c1.3,0.3,2.6,0.5,3.8,0.8c1.2,0.2,2.3,0.4,3.3,0.6c4,0.8,6.5,1.2,6.5,1.2l0.3-1.7c0,0-2.5-0.5-6.5-1.2s-9.5-1.9-15.5-3
	c5.1-0.9,9.9-1.7,13.4-2.5c3.5-0.7,5.7-1.2,5.7-1.2l-17-52.3l0.2-0.1l2-4.5c0.3-0.1,1.6-0.8,2.9-1.4c0.7-0.4,1.5-0.7,2-1
	c0.6-0.3,0.9-0.5,0.9-0.5l0.2,2.1c0,0,0.4,5.9,8.1,3.1c7.7-2.7,4.7-4.8,4.7-4.8l5.4,0.6c0,0,2.3-1.6,2.6-3.5
	c0.3-1.9,4.7-2.9,4.7-2.9l6,0.6l1.7,3.6l3.1-0.5l13.2,27.3l4.5-4l-7.1-14.3l-1.7,0.7l-5.3-11.5l1.9-1.8l1.6,1.5l11.5,23.3l5-2.8
	l-5.2-11.5l-1.7-0.8l-6.4-13.9l3.8-2.6c0,0,0.8-0.2,2.1-0.5c1.2-0.3,2.9-0.8,4.6-1.2c3.3-0.9,6.6-1.8,6.6-1.8l-1.3-4.5l2.8-1.9
	l-2.2-6.3l-3-7.4l4.1-4.5h3.2l2.1-1l0.9,5.4l-0.8,3.3l1.6,1.4l2.7,0.9c0,0,2.8-1.3,5.7-2.7c1.4-0.7,2.8-1.4,3.9-1.9s1.8-0.9,1.8-0.9
	l17.2,30.8l-1.1,0.6l8.6,16.1l8.2-3.7l-8.8-16l-4.1,1.7l-15-30.8c0,0,2.2-1.2,4.4-2.3c2.2-1.2,4.3-2.4,4.3-2.4s4.6,7.4,9.2,14.7
	c4.6,7.3,9.2,14.7,9.2,14.7l-1.4,1.5l9,15.9l8.1-4.7l-9.5-16.4l-3.2,2.1l-16.4-30.4c0,0,3.1-1.6,6.1-3.2c1.5-0.8,3-1.6,4.2-2.3
	c1.1-0.6,1.9-1.1,1.9-1.1l7.4,11.5l-1.9,1l6.1,11.1l5.4-3l-5.8-10.4l-1.7,0.2l-6.3-12.5l4.3-1.6l4.4,7.8c0,0,1.3-0.7,2.5-1.4
	c1.3-0.7,2.5-1.4,2.5-1.4l2.2,3.7l-1.3,0.8l6.5,11.2l5.9-3.5l-3.8-7.8l3.5,1l23,37l-21.5-37.5l1.2-6.9l3.1,4c0,0,1.7-1,3.3-2
	c1.6-1,3.3-2,3.3-2l-3.4-4.9l5.2-3.2l2.3,3.7c0,0,1.1-0.7,2.8-1.7c1.7-1,3.9-2.4,6-3.9c4.4-2.9,8.7-5.8,8.7-5.8l3.1,4.7
	c0,0,1.4-0.9,2.8-1.9s2.8-1.9,2.8-1.9l-4.7-6.9l2.5-2.9l1.8-1.7l4.9,7.1l5.3-3.7l-6.5-9.2c0,0,0.3-0.2,0.7-0.4c0.4-0.3,1-0.6,1.6-1
	c1.2-0.7,2.3-1.5,2.3-1.5l1.2-2.5l6-5.6l1.4,1.9l1.5-1.1l-1.6-2.1c0,0,0.4-0.3,1-0.7c0.6-0.4,1.3-1,2.1-1.6c1.5-1.2,3-2.3,3-2.3
	l1.8,2.4l1.5-1.1l-2.6-3.4l7.3-6.9l12.3,15.7c0,0-0.3,0.3-0.6,0.7c-0.3,0.4-0.6,0.7-0.6,0.7l10.9,13c0,0,0.8-0.6,1.6-1.3
	c0.8-0.6,1.6-1.3,1.6-1.3v-2.6l-9.7-12.2l-1.6-0.5l-10.9-14.3l3.9-4.4l11.7,14.5l-1,1.2l11.1,13.3l3-2.8l-10.5-13.3l-1.8-0.3
	l-9.3-13l1.7-2.7l-1.3-1.5c0,0,0.3-0.3,0.7-0.8c0.4-0.5,1-1.2,1.5-1.9c1.1-1.4,2.2-2.7,2.2-2.7l13,15.1l-1.2,1.9l9.4,11.2l3.9-3.7
	l0.3-2l3.1-2.6l-19.4-24.5c0,0,0.9-0.8,1.8-1.6c0.9-0.8,1.8-1.6,1.8-1.6l20.1,23.1l1.6-1.5l1.3,1.5l1.2-1.1l2.9,3.2l2.1-1.9l2.9,3.2
	l3.1-2.8l2,2.2l1.4-1.3l1.8,2l1.7-1.5l3.1,3.5c0,0,1-0.9,1.9-1.7c1-0.9,1.9-1.8,1.9-1.8l1.8,2c0,0,2.9-2.7,5.7-5.3
	c1.4-1.3,2.8-2.7,3.9-3.7s1.8-1.7,1.8-1.7l-1.6-10l-6.2-6.4l8.9-8.7l2.4,2.4c0,0,5.1-5.3,10.3-10.5c2.6-2.6,5.1-5.3,6.9-7.3
	c1.9-2,3.1-3.4,3.1-3.4l-2.2-2l4.5-4.9l-0.7-3.7l2.5-3.3l-1.6-2.7l3.4-3.3L1399,1304c0,0,2-2.2,4-4.5c1.9-2.3,3.9-4.6,3.9-4.6l5.8,5
	l1.4-1.6l6.6,5.6l1.6-1.9l5.6,4.7l9.3-0.5l2.7,2.2c0,0,0.6-0.7,1.2-1.4c0.6-0.7,1.1-1.4,1.1-1.4l-2.6-2.1l-1.1-7.9l-6.3-5.1
	c0,0,1-1.3,2.6-3.3s3.7-4.5,5.7-7.2c4.1-5.3,8.2-10.6,8.2-10.6l47.3,35.5c0,0,0.6-0.8,1.2-1.6c0.6-0.8,1.2-1.6,1.2-1.6l5.6,4.2
	l5.3-7.3l6.7,4.9c0,0,0.8-0.7,2.3-2.3s3.5-3.9,5.8-7.3c4.6-6.7,4.3-9.7,4.3-9.7l-5.7-4.7c0,0,1.1-1.7,2.3-3.3
	c1.1-1.7,2.2-3.3,2.2-3.3l-5.3-3.5l2.4-3.6l-38.6-25.5l0.9-1.3l-11.1-7.3l3.5-5.4l3.9,2.5c0,0,0.4-0.6,0.8-1.2s0.7-1.2,0.7-1.2
	l28,17.9l1.4-2.2l4.5-1l3.9-6.3l-0.8-3.4c0,0,0.5-0.9,1.1-1.7c0.5-0.9,1-1.7,1-1.7l-5.3-3.2l4.9-8.3l-10.3-6.1l1-1.6l4.6,2.7
	c0,0,0.5-0.8,1.1-1.9c0.7-1.2,1.6-2.7,2.5-4.2c1.7-3.1,3.5-6.2,3.5-6.2l-2-1.1c0,0,1.6-2.8,3.2-5.7c1.6-2.8,3.1-5.7,3.1-5.7
	l-6.7-3.6l1.2-2.2l-13.2-7l3.4-6.5l17.4,9.1c0,0,0.7-1.3,1.4-2.6c0.4-0.7,0.7-1.3,1-1.8s0.4-0.8,0.4-0.8l1.8,0.9l3.4-6.8l-1.8-0.9
	l2.7-5.4l-6.6-3.2c0,0,1-2,1.9-3.9c0.9-2,1.9-4,1.9-4l-3.3-1.6l2.1-4.5l44.9,20.9l1.3-1.2l4.5,2.1l6.8,2l4.6-2.7l2.4,0.4
	c0,0,0.5-1.1,1-2.2s0.9-2.2,0.9-2.2l-2.1-0.9l0.6-2.3l-17.2-8.7l5.5-0.8l7,3.1l2-4.6l-7-3c0,0-2.8-3.6-5.6-7.2
	c-2.8-3.6-5.7-7.2-5.7-7.2l0.4-1.9l-15.1-6.2c0,0,1.4-3.3,2.7-6.6c0.7-1.7,1.4-3.3,1.9-4.6c0.5-1.2,0.8-2.1,0.8-2.1l3.9,1.9l1.3-2.6
	l8.1,3.1l2.1-5.4l-7.5-2.8l1.4-3.6l-5-1.9c0,0,0.8-2,1.6-4.1c0.4-1,0.8-2.1,1-2.8c0.3-0.8,0.5-1.3,0.5-1.3l21.5,7.5l-5.5-9.3
	l-1.1,5.3l-14.4-5l2.3-6.7l3.1,1.1l1-2.7l9.7,3.4c0,0,0.5-1.5,1.1-3.1c0.3-0.8,0.5-1.5,0.7-2.1s0.3-1,0.3-1l-9.1-3.1l1.2-3.6
	l-4.1-1.4l0.8-2.4l-3-1c-0.9-2.6-3.2-10-3.7-13.3c-0.5-3.1-1.6-9.6-2.3-12.9c0,0,0.5-1.8,1-3.5s1-3.5,1-3.5l2.6,0.7l2.3-8.4
	l-2.6-0.7l1.5-5.7l-8-2.1c0,0,0.6-0.8,1.5-2.2s2.2-3.2,3.6-5.3c2.7-4.2,6.1-9.2,8-12.6c1.9-3.4,4.7-9.1,7-14.1
	c1.2-2.5,2.1-4.8,2.8-6.4c0.7-1.7,1.1-2.7,1.1-2.7l6.6,0.9l1.6-8.4c0,0,0.5-0.9,1.3-2.1c0.7-1.3,1.7-3,2.7-4.7c2-3.5,4-6.9,4-6.9
	s0.6-3.5,1.1-7.1c0.5-3.5,1-7.1,1-7.1l-3.3-0.5c0,0,1.2-3.3,3-8.5c0.9-2.6,1.9-5.6,3-8.9c1.1-3.3,2.2-6.9,3.4-10.6
	c1.2-3.7,2.2-7.5,3.3-11.2c1.1-3.7,2.1-7.3,3-10.5c1.7-6.6,3.1-11.9,3.7-14.5c1-4.2,2.2-12.3,3.5-20.5c0.7-1.2,1.4-2.5,2.1-3.7
	c6-10.8,10.9-19.7,10.9-19.7L1648.9,825.4L1648.9,825.4z M1335.7,203.6l1.8-0.4l-0.8,1L1335.7,203.6L1335.7,203.6z M412.8,176.9
	l0.2-1.9l0.7,1L412.8,176.9z M100.4,1045.7l1.2-0.4l0.5,1.1C102.1,1046.5,100.4,1045.7,100.4,1045.7z M149.3,1026.1l2.5-0.7
	c0,0,0.1,0.3,0.2,0.8c0.1,0.5,0.3,1.1,0.5,1.7c0.3,1.2,0.7,2.4,0.7,2.4l4-1.2l0.5,1.6l3.3-1l1.3,4.7l-11.5,3.5c0,0-4.8,1.2-7.8-0.7
	c-0.8-0.5-1.4-1-1.9-1.4c0,0,2.1-2.4,4.2-4.9C147.2,1028.5,149.3,1026.1,149.3,1026.1L149.3,1026.1z M129.8,648.8l0.4-2.1l17.6,4.1
	l-0.5,2.2L129.8,648.8z M146.5,1026.9c0,0-1.7,1.9-3.3,3.9c-1.7,1.9-3.3,3.9-3.3,3.9c-0.6-0.8-0.9-1.3-0.9-1.3s-0.3-1-0.7-2
	c-0.3-1-0.6-2-0.6-2L146.5,1026.9z M149,1077.3c-2.6-2.4-7-6.7-9.1-8.8c-1.5-1.6-4.5-3.9-7-5.8c-1.3-1-2.5-1.8-3.4-2.5
	c-0.9-0.6-1.4-1-1.4-1l-0.2,0.3l-0.4-1.3l0.6-0.2l-0.3,0.6c0,0,1.7,0.8,4.2,2.1c2.5,1.3,5.7,3.2,8.8,5.5c4.3,3.1,8.8,7.7,11.1,10.2
	L149,1077.3z M153.5,1075.7c-2.1-2.3-7-7.4-11.8-10.8c-4.9-3.6-10.2-6.3-12.3-7.3l11.9-3.8c1.5,1.5,4.5,4.6,8.2,9.1
	c3.3,4.1,6.7,8.4,8.7,11.2L153.5,1075.7z M160.3,1073.3l-0.4,0.1c-2-2.7-5.5-7.3-9-11.6c-3.3-4.1-6.1-7-7.8-8.7l2.8-0.9
	c0.9,0.8,2.3,2,3.8,3.5c1.6,1.5,3.3,3.4,5.1,5.5c1.4,1.7,3,3.4,4.3,4.9l0.3,1l0.4-0.1c1.1,1.2,2.1,2.3,2.9,3.2l-3.2,1.1
	L160.3,1073.3L160.3,1073.3z M161.6,1066.3l0.7-0.2l0.6,1.7C162.5,1067.3,162.1,1066.8,161.6,1066.3L161.6,1066.3z M160.6,1050.4
	l0.9,2.9l-3.8,1.2c0,0,0.6,1.8,1.2,3.6c0.3,0.9,0.6,1.8,0.8,2.5s0.4,1.1,0.4,1.1l-2,0.7c-0.7-0.7-1.3-1.5-1.9-2.2
	c-3.1-3.7-6.4-6.8-8.4-8.5l16.7-5.3l0.3,3.1L160.6,1050.4z M1311.8,240.5c0.2-2.5,0.4-5.1,0.4-5.1c1,0.2,1.5,0.5,1.5,0.5l3.4,2.5
	l-5.7,7.2C1311.3,245.6,1311.6,243,1311.8,240.5L1311.8,240.5z M1310.6,235.1c0,0-0.2,3.2-0.5,6.4s-0.5,6.4-0.5,6.4l-1.6,2l-3.9-3.2
	l-2.6,3.3l-1.3-1l-2.1,2.7l-3.8-3.1l7.3-9.6c0,0,3.2-3.8,6.7-4C1309.1,235,1309.9,235,1310.6,235.1L1310.6,235.1z M1283.7,233
	l2.3-3.2c0,0-1.5-1.1-3.1-2.2c-1.5-1.1-3.1-2.2-3.1-2.2l1.2-1.7c1,0.2,1.9,0.4,2.9,0.7c4.7,1.2,9.2,1.7,11.8,2l-10.4,14.1l-2-2.3
	l2.8-3.3L1283.7,233L1283.7,233z M1279.7,206.3c3.5,0.5,9.6,1.3,12.5,1.8c2.2,0.3,5.9,0.5,9.1,0.6c1.6,0,3.1,0,4.2,0h1.8v-0.4
	l1.1,0.8l-0.4,0.5l-0.1-0.7c0,0-1.8,0.4-4.6,0.7c-2.8,0.4-6.5,0.7-10.3,0.7c-5.4,0-11.7-1.1-15-1.7L1279.7,206.3z M1277,210.2
	c3.1,0.6,10,1.9,15.9,1.9c6.1,0,12-0.9,14.3-1.3l-7.4,10.1c-2.1-0.3-6.3-1-12-2.6c-5.1-1.3-10.4-2.9-13.6-3.9L1277,210.2z
	 M1272.9,216.1l0.2-0.3c3.2,1,8.7,2.7,14.1,4.1c5.1,1.4,9.1,2.1,11.4,2.5l-1.8,2.4c-1.2-0.1-3-0.3-5.2-0.6s-4.7-0.8-7.3-1.4
	c-2.2-0.5-4.4-1-6.4-1.5l-0.8-0.6l-0.2,0.3c-1.6-0.3-3-0.6-4.2-0.9l1.9-2.8L1272.9,216.1L1272.9,216.1z M1275.9,222.5l-0.4,0.6
	l-1.4-1C1274.6,222.3,1275.3,222.4,1275.9,222.5z M1244.1,186.6c0.5,0.6,0.9,1.1,0.9,1.1l-3.5,5.9c0,0-0.4-0.7-0.9-1.4
	c-0.4-0.7-0.9-1.4-0.9-1.4l0,0l3.5-5.4C1243.2,185.5,1243.6,186,1244.1,186.6L1244.1,186.6z M1239.8,181.5l2.1,2.4l-3.4,5.1
	l-2.2-2.3L1239.8,181.5L1239.8,181.5z M1238,180.1l-2.8,5l-2.2-2.6l2.5-4.8L1238,180.1z M1227.7,180.2l2.1,2.5l-3.6,7l-3.2-1.7
	L1227.7,180.2L1227.7,180.2z M1221.3,187.2l-3.4-1.9l5.6-9.6l3,2.6L1221.3,187.2L1221.3,187.2z M1231.5,184.6l2.2,2.1l-3.9,5.8
	l-2.3-1.1L1231.5,184.6z M1231.7,174.4l1.8,1.9l-2.2,4.3l-2-2.2L1231.7,174.4z M1230.1,173l-2.5,3.8l-3.2-2.8l2.6-3.7L1230.1,173
	L1230.1,173z M1221.7,166.5l3.8,2.1l-2.1,3.8l0,0l-3.3-2.5L1221.7,166.5L1221.7,166.5z M1219.1,172.8l2.7,2.1l-4.8,8.2l-4.3,1.1
	L1219.1,172.8z M1182.4,132.3l-7.1,14.6c-1.2-1.3-2.6-2.9-4.3-4.7l6.5-14.2L1182.4,132.3L1182.4,132.3z M1123.9,152.9
	c-2.5-0.9-5-1.7-6.9-2.4c-1.9-0.6-3.1-1.1-3.1-1.1l3.1-9.2c0,0,2.9,1.5,6.3,3.3s7.1,4,9,4.9c1.9,1,5.1,2.9,7.9,4.5
	c2.7,1.7,5,3.2,5,3.2l-3,7c0,0-2.3-1-4.7-2c-1.2-0.5-2.4-1-3.2-1.3c-0.9-0.4-1.5-0.6-1.5-0.6l1.1-2.7
	C1133.8,156.5,1128.8,154.7,1123.9,152.9L1123.9,152.9z M1101.5,110.1l2.8-8.2c1.9,1.5,4,3.1,6.2,4.9l-3,8.4
	C1107.6,115.2,1101.5,110.1,1101.5,110.1z M1107,116.9l-1.5,4.4l-6.7-3l2.2-6.4L1107,116.9L1107,116.9z M1110.1,119.5
	c0,0,1.5,1.3,3.1,2.6c1.5,1.3,3,2.7,3,2.7l-0.2,0.6c0,0-1.7-0.8-3.4-1.5c-1.7-0.7-3.5-1.4-3.5-1.4L1110.1,119.5z M1152.8,136.5
	c-1.5-1.5-3-3-4.5-4.6l3.3-7.6c1.5,1.5,3,3.1,4.5,4.7L1152.8,136.5z M1158,130.9c1.6,1.7,3.2,3.3,4.7,4.9l-3.3,7.3
	c-1.5-1.6-3.1-3.2-4.8-4.8L1158,130.9L1158,130.9z M1145.9,129.6c-1.6-1.6-3.1-3.1-4.6-4.5l3.2-7.7c1.5,1.5,3,3,4.7,4.6
	L1145.9,129.6L1145.9,129.6z M1145.2,131.3l-0.6,1.3c-1.6-1.3-3.1-2.7-4.7-4l0.7-1.8C1142,128.2,1143.6,129.7,1145.2,131.3z
	 M1143.9,134.2l-2.5,5.9l-5-3.1l2.8-6.8C1140.7,131.6,1142.3,132.9,1143.9,134.2z M1137,126.1c-1.6-1.3-3.1-2.7-4.7-4l1.1-2.5
	c1.3,1.3,2.8,2.8,4.5,4.5C1137.8,124.1,1137,126.1,1137,126.1z M1136.3,127.8l-3.1,7.4c0,0-1.3-0.7-2.6-1.4
	c-0.6-0.3-1.3-0.7-1.8-0.9s-0.8-0.4-0.8-0.4l3.6-8.6C1133.2,125.1,1134.7,126.4,1136.3,127.8z M1129.5,119.8
	c-0.8-0.7-1.6-1.3-2.4-1.9c-1.2-1-2.4-2-3.6-2.9l1.5-3.8c2,2.1,3.9,4.1,5.7,5.8L1129.5,119.8z M1128.8,121.5l-3.5,8.8l-0.9-0.4
	l-4.9-4.4l3.4-8.9C1124.8,118.2,1126.8,119.8,1128.8,121.5L1128.8,121.5z M1116.9,123.2c0,0-1.5-1.4-3.1-2.7
	c-1.6-1.3-3.1-2.6-3.1-2.6l3-8.6c1.1,0.8,2.2,1.7,3.3,2.6c1.1,0.9,2.2,1.8,3.3,2.7L1116.9,123.2z M1145,141.7
	c-0.5-0.3-0.8-0.4-0.8-0.4l2.2-5c1.6,1.4,3.1,2.8,4.6,4.1l-1.7,3.7c0,0-1.3-0.7-2.5-1.4C1146.1,142.4,1145.5,142,1145,141.7
	L1145,141.7z M1147.1,134.7l0.5-1.1c1.5,1.5,3,3,4.5,4.5l-0.3,0.7C1150.2,137.5,1148.7,136.1,1147.1,134.7L1147.1,134.7z
	 M1152.9,142.1c1.7,1.5,3.4,3,5,4.4l-1.2,2.6l-5.4-3.4L1152.9,142.1L1152.9,142.1z M1153.6,140.5l0.2-0.5c1.6,1.6,3.2,3.3,4.8,4.8
	l0,0C1157,143.4,1155.3,142,1153.6,140.5L1153.6,140.5z M1159.6,148c1.6,1.4,3.1,2.8,4.5,4l-0.6,1.3c0,0-1.3-0.7-2.6-1.3
	c-0.6-0.3-1.3-0.7-1.8-0.9s-0.8-0.4-0.8-0.4L1159.6,148L1159.6,148z M1161,144.9l3.4-7.2c1.5,1.6,3,3.2,4.3,4.7l-3.4,7.1
	C1164,148,1162.6,146.4,1161,144.9z M1165.8,153.5c1.7,1.5,3.2,2.8,4.4,3.8l0,0l-4.8-2.9L1165.8,153.5z M1166.9,151.1l3.3-7.1
	c1.7,1.8,3.1,3.4,4.2,4.6l-3.4,6.9C1169.9,154.3,1168.5,152.7,1166.9,151.1L1166.9,151.1z M1171,123.8c0,0,1.3,0.9,2.5,1.8
	s2.5,1.8,2.5,1.8l-6.4,13.3c-1.4-1.5-2.8-3.1-4.3-4.7C1165.2,136,1171,123.8,1171,123.8z M1168.8,122.4l-5.3,11.8
	c-1.5-1.6-3.1-3.2-4.7-4.9l5-11L1168.8,122.4z M1161.4,117.6l-4.4,9.8c-1.5-1.6-3.1-3.2-4.6-4.7l3.7-8.4L1161.4,117.6z
	 M1148.1,108.7l5.4,3.3l-3.6,8.4c-1.6-1.6-3.2-3.2-4.7-4.7C1145.2,115.6,1148.1,108.7,1148.1,108.7z M1140.1,103.7l5,3.3l-2.5,6
	l-0.7-0.7c-1.2-1.1-2.4-2.5-3.8-3.9L1140.1,103.7L1140.1,103.7z M1140.7,113.6c0.4,0.4,0.7,0.7,1.1,1.1l-3.3,7.7
	c-1.7-1.7-3.2-3.2-4.5-4.5l3.3-7.8C1138.5,111.4,1139.7,112.5,1140.7,113.6L1140.7,113.6z M1130,98l6.6,4l-1.4,3.5
	c-1.8-1.9-3.7-4-5.7-6.2L1130,98L1130,98z M1134.6,107.2l-3.2,8c-1.7-1.7-3.7-3.7-5.7-5.8l3.2-8.3
	C1130.8,103.2,1132.7,105.3,1134.6,107.2z M1119.5,92.4l3.1,1.9c1.3,1.4,2.6,2.9,3.9,4.3l-3.3,8.3c-1-1.1-2.1-2.2-3.2-3.3
	c-1.1-1.1-2.2-2.2-3.3-3.3L1119.5,92.4L1119.5,92.4z M1119.4,105.3c1.1,1.1,2.1,2.2,3.2,3.3l-1.7,4.2c-1.1-0.9-2.3-1.8-3.4-2.7
	c-1.1-0.9-2.2-1.7-3.3-2.6l1.9-5.5C1117.3,103.1,1118.3,104.2,1119.4,105.3z M1109.2,87.7l6.8,3.6l-2.1,6c-2.1-2.1-4.1-4.1-5.9-6
	C1108,91.3,1109.2,87.7,1109.2,87.7z M1113.3,99.1l-2.1,6c-2.2-1.7-4.3-3.4-6.2-4.9l2.4-7.1C1109.2,95,1111.2,97,1113.3,99.1z
	 M1100.2,82.2l6.3,3.5l-1.1,3c-2.2-2.1-4.1-4-5.6-5.4L1100.2,82.2z M1099.2,85c1.5,1.5,3.4,3.3,5.6,5.4l-2.7,7.5
	c-2.2-1.6-4.2-3.1-5.8-4.3C1096.3,93.6,1099.2,85,1099.2,85z M1095.7,95.3c1.7,1.2,3.6,2.7,5.8,4.3l-2.9,8l-5.6-4.5L1095.7,95.3z
	 M1092.4,104.9l5.6,4.5l-2.6,7.3l-6.1-2.4L1092.4,104.9z M801.7,80.2l1.5,18l-2.2,0.1l-1.4-18L801.7,80.2z M436.6,207.9
	c0,0,0.8-0.6,1.7-1.2c0.9-0.6,1.7-1.2,1.7-1.2l5.1,7.6c0,0-0.6-0.3-1.5-0.6c-0.9-0.4-2.1-0.9-3.2-1.4c-2.4-1-4.7-1.9-4.7-1.9
	C436.2,208.3,436.6,207.9,436.6,207.9z M434.2,212.9c0.2-0.9,0.5-1.6,0.8-2.3c0,0,3,1.2,5.9,2.4s5.9,2.5,5.9,2.5l1.4,2.1
	c0,0-0.3,0.2-0.7,0.4c-0.4,0.2-0.9,0.6-1.5,0.9c-1.1,0.7-2.1,1.4-2.1,1.4l2.3,3.4l-1.4,1l2,2.9l-4.1,2.7l-6.9-9.9
	C436,220.5,433.3,216.3,434.2,212.9L434.2,212.9z M432.3,236.2l-2.8,1.2l-2.3-3.7l-2.4,1.8l-2.4-3.2l-6.1,4.5l-1.2-1.7
	c0.5-0.8,1-1.7,1.6-2.5c2.6-4.1,4.5-8.2,5.5-10.6L432.3,236.2z M420.9,220.4c-0.9,2.2-2.9,6.7-5.7,11.3c-1.2,1.9-2.3,3.8-3.4,5.6
	l-0.8,0.6l0.3,0.3c-0.8,1.4-1.5,2.7-2.1,3.7l-2.1-2.7l-1.7,1.3l-0.2-0.3c1-1.4,2.3-3.3,3.7-5.4c1.4-2.1,3-4.5,4.5-6.8
	c2.9-4.4,4.8-8,5.8-10.1L420.9,220.4L420.9,220.4z M412.8,240.3l-1.4,1.1c0.3-0.5,0.6-1.1,0.9-1.7L412.8,240.3L412.8,240.3z
	 M418,216.4c-0.9,1.9-2.9,5.7-6.1,10.6c-2.9,4.4-5.9,9-7.9,11.8l-3.1-4c0.8-1.4,2-3.6,3.2-6.2c1.2-2.6,2.5-5.6,3.4-8.3
	c1.9-5.8,2.8-11.7,3.1-14L418,216.4L418,216.4z M403.6,219.7c1-1.9,2.3-5.5,3.4-8.5c0.5-1.5,1-2.9,1.3-4c0.3-1,0.5-1.7,0.5-1.7
	l-0.3-0.1l1.1-0.8l0.4,0.5l-0.7-0.1c0,0-0.2,1.9-0.7,4.6c-0.5,2.8-1.3,6.4-2.5,10c-1.7,5.1-4.6,10.8-6.2,13.7l-1.8-2.3
	C399.5,227.9,402.2,222.3,403.6,219.7L403.6,219.7z M369.7,258.4l4.6,5.1l-3.2,0.8l0,0l-4.1-5L369.7,258.4z M351.7,275.2
	c0,0,0.9-0.5,1.7-1c0.8-0.5,1.7-1,1.7-1l6.8,7.7c0,0-0.7,0.6-1.4,1.3c-0.7,0.7-1.4,1.3-1.4,1.3L351.7,275.2L351.7,275.2z
	 M356.8,283.7l-0.3,4.4l-9-9.6l2.9-1.9L356.8,283.7L356.8,283.7z M357.3,272.6l3.1-1.2l5.5,5.6l-2.6,2.5L357.3,272.6z M362.6,270.3
	l2.7-1.5l4.3,5.5l-1.7,1.9L362.6,270.3z M365.1,260.2l3.8,4.8l-2.9,1.4l-3.9-5L365.1,260.2L365.1,260.2z M360.4,262.7l3.9,4.2
	l-3.2,1.3l-3.8-3.9L360.4,262.7L360.4,262.7z M355.3,265.9l3.4,3.4l-2.7,1.3l-3-3.5L355.3,265.9z M349.3,269.2
	c0.9-0.5,1.8-1.1,1.8-1.1l2.8,3.5c0,0-0.9,0.5-1.8,1.1s-1.8,1.1-1.8,1.1l-2.7-3.6C347.6,270.2,348.4,269.7,349.3,269.2L349.3,269.2z
	 M345.5,271.1l2.9,3.2l-3.3,2.3l-2.8-2.6L345.5,271.1L345.5,271.1z M317.7,320.2l-4.2,3.7l-0.7-0.7C314.7,322,316.3,321,317.7,320.2
	L317.7,320.2L317.7,320.2z M287.7,338.1l4.8,4.2l-4.5,3.8l-5.6-4.8C284.2,340.2,285.9,339.1,287.7,338.1L287.7,338.1z M281,340.2
	l-1.5-1.3c1.8-0.9,3.7-1.9,5.7-3l1.1,1C284.6,338,282.8,339.1,281,340.2z M288.2,334.4c1.9-0.9,3.8-1.9,5.7-2.8l0.6,0.5
	c-1.7,1-3.5,2.1-5.3,3.1L288.2,334.4L288.2,334.4z M290.5,336.4c1.8-1.1,3.6-2.1,5.3-3.1l3,2.8l-4.3,4L290.5,336.4L290.5,336.4z
	 M296.2,330.4c2.1-1,4.1-2,6.1-3l0,0c-1.8,1.1-3.7,2.2-5.7,3.4L296.2,330.4L296.2,330.4z M297.9,332c2-1.2,3.9-2.3,5.7-3.4l2.1,2
	l-4.9,4.1L297.9,332z M305.6,327.4c1.8-1.1,3.6-2.1,5.2-3.1l1,1c0,0-1,1-2,2.1c-1,1-2,2.1-2,2.1L305.6,327.4L305.6,327.4z
	 M303.1,325.1l-5.8-5.5c2-1,4-1.8,5.8-2.7l5.7,5.4C307,323.2,305.1,324.1,303.1,325.1L303.1,325.1z M300.9,326.1c-2,1-4,2-6.1,3
	l-6-5.5c2.1-1,4.1-2,6.1-3L300.9,326.1L300.9,326.1z M292.6,330.3c-1.9,1-3.8,1.9-5.7,2.9l-6.2-5.5c1.9-0.9,3.9-1.9,5.9-2.9
	L292.6,330.3z M283.9,334.7c-2,1-3.9,2-5.7,3l-6.4-5.5c1.8-1,3.8-2,5.8-3L283.9,334.7L283.9,334.7z M277.8,342.1
	c-1.7,1.1-3.5,2.1-5.2,3.2l-2.1-1.8c1.6-0.8,3.5-1.8,5.6-2.9L277.8,342.1z M274.8,339.5c-2.1,1.1-4,2-5.6,2.9l-6.4-5.5
	c1.5-0.7,3-1.5,4.3-2.1c0.5-0.2,0.9-0.5,1.4-0.7L274.8,339.5L274.8,339.5z M269.5,347.3c-0.9,0.6-1.7,1.1-2.6,1.6
	c-1.3,0.8-2.6,1.7-3.9,2.5l-3.2-2.6c2.6-1.3,5.1-2.5,7.2-3.6L269.5,347.3L269.5,347.3z M265.7,344.1c-2.2,1.1-4.7,2.3-7.3,3.6
	l-6.9-5.6c2.7-1.2,5.2-2.4,7.6-3.5L265.7,344.1z M260.2,353.3c-1.2,0.8-2.4,1.6-3.6,2.3c-1.2,0.8-2.3,1.6-3.5,2.3l-4.6-3.5
	c1.4-0.7,2.8-1.4,4.1-2.1c1.4-0.7,2.8-1.3,4.1-2L260.2,353.3z M249.8,360.2c-2.3,1.6-4.5,3-6.6,4.4l-6-4.5c2.4-1.2,4.9-2.5,7.5-3.8
	L249.8,360.2L249.8,360.2z M251.3,361.2l7.1,5.5l-6.7,4.2l-6.9-5.2C246.8,364.3,249,362.8,251.3,361.2L251.3,361.2z M254.5,359
	c1.1-0.8,2.3-1.5,3.5-2.3s2.4-1.5,3.6-2.3l7.2,5.9c0,0-1.8,1-3.5,2.1s-3.5,2.1-3.5,2.1L254.5,359L254.5,359z M264.4,352.6
	c2.1-1.4,4.3-2.7,6.4-4.1l7.3,6.1l-0.7,0.7l-5.6,3.3L264.4,352.6L264.4,352.6z M273.9,346.5c1.7-1.1,3.5-2.1,5.2-3.2l6,5.2
	c0,0-1.1,1-2.1,2c-0.5,0.5-1.1,1-1.4,1.4l-0.6,0.6L273.9,346.5z M290.1,360.7c2.8-2.6,6-5.5,7.5-7s4.3-4,6.8-6.1s4.6-3.8,4.6-3.8
	l5.7,5c0,0-1.7,1.9-3.4,3.8c-0.9,0.9-1.7,1.9-2.3,2.7c-0.6,0.7-1,1.2-1,1.2l-2.2-1.9c0,0-3.3,4.2-6.5,8.4c-1.7,2.1-3.2,4.2-4.4,5.8
	c-1.2,1.6-2,2.7-2,2.7l-7.8-5.8C285,365.6,287.4,363.3,290.1,360.7L290.1,360.7z M316.3,318.8c-1.5,0.7-3.4,1.6-5.5,2.6L305,316
	c2.3-1,4.2-1.9,5.7-2.6L316.3,318.8L316.3,318.8z M297.7,300.9l11.7,11.3c-1.6,0.7-3.5,1.6-5.8,2.6l-11.5-10.6L297.7,300.9z
	 M286.9,308.5c0.5-0.3,1.1-0.8,1.7-1.2c1.2-0.9,2.5-1.8,2.5-1.8l10.7,10.2c-1.8,0.8-3.8,1.7-5.8,2.7l-9.9-9.3
	C286.1,309.1,286.4,308.8,286.9,308.5z M284.1,310.8l9.6,8.7c-2,1-4,2-6.1,3l-8.9-8.2L284.1,310.8z M277.3,316.3l7.9,7.3
	c-2,1-4,1.9-5.9,2.9l-6.9-6.1L277.3,316.3L277.3,316.3z M269.4,322l6.8,6c-2.1,1.1-4,2.1-5.9,3l-5.7-4.9L269.4,322L269.4,322z
	 M262.2,328.5l4.9,4.3c-0.3,0.2-0.6,0.3-0.9,0.5c-1.4,0.7-3.1,1.5-4.9,2.4l-3.9-3.4L262.2,328.5L262.2,328.5z M254.8,335l2.9,2.4
	c-2.4,1.1-5,2.3-7.6,3.5L249,340L254.8,335L254.8,335z M243.1,345.9c1.7-0.8,3.5-1.6,5.3-2.4l6.9,5.7c-1.4,0.7-2.8,1.3-4.2,2
	s-2.8,1.4-4.2,2.1l-6.6-5L243.1,345.9L243.1,345.9z M238.3,351.3l5,3.9c-2.6,1.3-5.2,2.6-7.5,3.8l-3-2.3L238.3,351.3L238.3,351.3z
	 M224.7,363.5l5.3-4.9l2.5,2c-2.7,1.4-5.1,2.6-6.9,3.6L224.7,363.5L224.7,363.5z M227.1,365.3c1.9-1,4.2-2.2,6.9-3.6l6.3,4.9
	c-2.3,1.6-4.2,3-5.9,4.2L227.1,365.3L227.1,365.3z M235.8,371.9c1.7-1.2,3.7-2.6,5.9-4.2l6.7,5.2l-6,3.9L235.8,371.9L235.8,371.9z
	 M251.8,383.8l-7.9-5.9l6-3.9l6.2,4.7L251.8,383.8L251.8,383.8z M258.5,376.1l-5.4-4.1l6.7-4.2l3.7,2.8L258.5,376.1L258.5,376.1z
	 M265.8,367.6l-2.5-1.9c0,0,1.7-1.1,3.4-2.1c1.7-1,3.5-2.1,3.5-2.1l0.5,0.4c0,0-1.2,1.4-2.5,2.8C267,366.1,265.8,367.6,265.8,367.6
	L265.8,367.6z M220.7,1209.4l-4.7,2.7c-0.5-2-0.9-4.1-1.3-6l3.6-2L220.7,1209.4L220.7,1209.4z M210.9,1208.3c0.3,2.1,0.6,4.2,1,6.3
	l-7.1,4.2c-0.3-2.1-0.6-4.3-0.9-6.5L210.9,1208.3z M203.4,1209.7c-0.3-2.3-0.6-4.5-0.9-6.7l7-4c0.3,2.2,0.7,4.4,1,6.7L203.4,1209.7
	L203.4,1209.7z M211,1198.1L211,1198.1c0.5,2,1,4.2,1.5,6.4l-0.5,0.3C211.7,1202.6,211.4,1200.3,211,1198.1L211,1198.1z
	 M212.4,1217.9c0.4,2.2,0.7,4.3,1.1,6.3l-7.1,4.4c-0.3-2-0.7-4.2-1.1-6.5L212.4,1217.9z M213.4,1213.7c-0.3-2.1-0.6-4.2-1-6.3
	l0.7-0.4c0.4,2,0.9,4,1.4,6.1L213.4,1213.7L213.4,1213.7z M215.2,1216.2c0.5,2,1,4,1.5,6l-1.7,1c-0.3-2-0.7-4.1-1.1-6.3
	L215.2,1216.2L215.2,1216.2z M217.6,1225.9c0.5,2,1,4,1.4,6l-2.3,1.4c-0.3-1.8-0.6-3.9-1-6.3L217.6,1225.9z M220,1235.4
	c0.3,1,0.5,2,0.8,2.9c0.4,1.5,0.8,3,1.2,4.5l-3.4,2.2c-0.4-2.9-0.8-5.6-1.2-8L220,1235.4L220,1235.4z M222.8,1246.1
	c0.7,2.8,1.5,5.6,2.2,8.2l-4.7,3.3c-0.5-3-0.9-6.1-1.3-9.1L222.8,1246.1L222.8,1246.1z M226.1,1258.1c0.8,2.7,1.5,5.2,2.2,7.6
	l-6.1,4.3c-0.4-2.6-0.8-5.4-1.3-8.3L226.1,1258.1L226.1,1258.1z M227.6,1257.1l7.4-5.1l1.9,7.7l-7.1,5
	C229.1,1262.3,228.4,1259.8,227.6,1257.1L227.6,1257.1z M236.5,1251l3.8-2.6l3.7,6.3l-5.6,3.9L236.5,1251L236.5,1251z M235.5,1247
	c0,0-0.1-0.5-0.3-1.2s-0.4-1.7-0.6-2.7c-0.4-2-0.9-4-0.9-4l0.6-0.4c0,0,0.9,1.6,1.9,3.2c0.5,0.8,1,1.6,1.3,2.2c0.4,0.6,0.6,1,0.6,1
	L235.5,1247z M233.7,1246.8c0.2,0.7,0.3,1.2,0.3,1.2l-7.5,5.2c-0.8-2.6-1.5-5.4-2.2-8.2l7.9-5c0,0,0.4,2,0.9,4
	C233.3,1245.1,233.5,1246.1,233.7,1246.8L233.7,1246.8z M223.4,1241.9c-0.6-2.4-1.3-4.9-2-7.4l8-5.1l0.5,0.9l1.4,6.4L223.4,1241.9
	L223.4,1241.9z M220.6,1231c-0.5-2-1-4-1.4-6l6.8-4.1l2.6,5.3L220.6,1231z M218.2,1221.4c-0.5-2-1-4-1.5-6l5.5-3.3l2.2,5.4
	L218.2,1221.4L218.2,1221.4z M217.5,1201.8l-3.4,1.9c-0.5-2.2-1-4.4-1.5-6.5l2.5-1.4L217.5,1201.8z M214.7,1193.5l-2.6,1.4
	c-0.5-2.1-0.9-4.1-1.3-5.9l1.3-0.7L214.7,1193.5z M208.9,1181.2l2.2,5.2l-0.9,0.5C209.8,1184.7,209.3,1182.8,208.9,1181.2
	L208.9,1181.2L208.9,1181.2z M209.1,1196.6l-7,3.8c-0.3-2.2-0.5-4.3-0.7-6.3l6.9-3.7C208.5,1192.4,208.8,1194.5,209.1,1196.6
	L209.1,1196.6z M207.2,1182.1c0.2,1.7,0.5,3.7,0.8,6l-6.9,3.8c-0.3-2.5-0.5-4.6-0.7-6.2L207.2,1182.1z M181.4,1117.7l1.3,2.2
	l-7.3,3.2l-0.5-3L181.4,1117.7z M184.2,1125.3l-8.4,3.6l-0.2-3.3l7-3.5L184.2,1125.3L184.2,1125.3z M166.3,1112.7l6.3-2.8l-0.2,3.3
	l0,0l-6,2.4L166.3,1112.7z M166.8,1120.8l-0.3-3.1l5.8-2.2l0.5,3.2L166.8,1120.8L166.8,1120.8z M167.4,1122.9l5.2-2.4l0.3,3.4
	l-4.9,2.4L167.4,1122.9z M169.3,1131.3l-0.4-2.6l4.3-2.2l0.4,3L169.3,1131.3z M170.2,1135.4c-0.2-1-0.4-2-0.4-2l4.2-1.6
	c0,0,0.2,1,0.5,2.1c0.3,1,0.5,2.1,0.5,2.1l-4.2,1.5C170.6,1137.4,170.4,1136.4,170.2,1135.4L170.2,1135.4z M172.7,1143.5l-1.8-3.9
	l3.9-1.8l1.2,3.9L172.7,1143.5L172.7,1143.5z M176.2,1133c-0.2-1-0.4-1.9-0.4-1.9l9.4-4.1c0,0,0.4,0.9,0.8,1.8
	c0.4,0.9,0.8,1.7,0.8,1.7l-10.1,4.5C176.6,1135,176.4,1134,176.2,1133L176.2,1133z M178.5,1140l-0.9-3.3l8.7-3.9l4.1,1.6L178.5,1140
	z M184.4,1194.3l14.4-7.7c0.2,1.7,0.4,3.9,0.7,6.3l-13.6,7.6L184.4,1194.3z M186.7,1202l13-7c0.2,2,0.5,4.1,0.7,6.3l-11.9,6.5
	L186.7,1202z M191.3,1216.6l-1.6-6.3l11.2-6.4c0.3,2.2,0.6,4.4,1,6.7L191.3,1216.6L191.3,1216.6z M192.9,1218.5l9.3-5.3
	c0.3,2.2,0.6,4.4,0.9,6.5l-7.9,4.7L192.9,1218.5L192.9,1218.5z M195.9,1227.7l7.8-4.6c0.4,2.3,0.7,4.5,1.1,6.5l-6.4,4L195.9,1227.7
	L195.9,1227.7z M199.8,1236.7l5.6-3.4c0,0.3,0.1,0.7,0.2,1c0.3,1.6,0.5,3.4,0.8,5.4l-4.4,2.7L199.8,1236.7z M206.7,1252.8l-3-7.1
	l3.2-2c0.4,2.6,0.7,5.4,1,8.3L206.7,1252.8L206.7,1252.8z M207.9,1238.7c-0.2-1.7-0.5-3.3-0.7-4.7c-0.1-0.5-0.2-1-0.3-1.6l7.2-4.3
	c0.4,2.3,0.7,4.4,1,6.3L207.9,1238.7z M208.4,1242.7l7.3-4.6c0.4,2.4,0.8,5.1,1.2,8l-7.4,4.8
	C209.1,1248.1,208.8,1245.3,208.4,1242.7L208.4,1242.7z M211.2,1261.8c-0.4-0.8-0.7-1.7-0.7-1.7c-0.2-1.9-0.4-3.9-0.6-5.8l7.5-4.8
	c0.4,3,0.8,6.1,1.3,9.2l-6.8,4.8C211.9,1263.5,211.6,1262.7,211.2,1261.8L211.2,1261.8z M217.5,1273.3l-3.4-6.9l5.2-3.6
	c0.4,2.9,0.9,5.7,1.3,8.3L217.5,1273.3z M221.6,1283.1c0,0-0.8-1.6-1.5-3.3c-0.4-0.8-0.8-1.6-1-2.2c-0.3-0.6-0.5-1-0.5-1l2.6-1.8
	c0.5,3,1,5.6,1.3,7.7L221.6,1283.1z M224.1,1281.3c-0.4-2.1-0.8-4.7-1.3-7.7l6.6-4.5c0.8,2.6,1.5,5,2.1,6.9L224.1,1281.3
	L224.1,1281.3z M232.9,1275.1c-0.6-2-1.4-4.3-2.1-6.9l7-4.8c0,0,0.1,0.4,0.3,1.1c0.2,0.6,0.4,1.5,0.7,2.4c0.5,1.7,1,3.5,1,3.5
	L232.9,1275.1L232.9,1275.1z M241.2,1269.2c0,0-0.5-1.7-1-3.4c-0.2-0.9-0.5-1.7-0.6-2.4c-0.2-0.6-0.3-1.1-0.3-1.1l6.4-4.4
	c0,0,0.2,0.4,0.5,0.9s0.8,1.2,1.2,1.9c0.9,1.4,1.8,2.8,1.8,2.8L241.2,1269.2z M242.1,1226.3c0,0-1.4-3-3.1-6.4
	c-1.6-3.5-3.4-7.4-4.4-9.3c-0.9-1.9-2.5-5.3-3.7-8.3s-2.2-5.5-2.2-5.5l6.5-3.9c0,0,1.3,2.2,2.6,4.4c1.3,2.2,2.6,4.4,2.6,4.4
	l-2.5,1.5c0,0,3,4.4,6,8.8c0.7,1.1,1.5,2.2,2.2,3.2s1.4,2,2,2.8c1.2,1.6,1.9,2.7,1.9,2.7L242.1,1226.3L242.1,1226.3z M463.5,1461.3
	l-1.8-1.1l9.4-15.5l1.9,1.2L463.5,1461.3z M833.3,1610.5l-1.2,1.4v-1.3L833.3,1610.5L833.3,1610.5z M832.2,1571.4H828l0.3-9.2
	l5.3,8.8C832.7,1571.3,832.2,1571.4,832.2,1571.4L832.2,1571.4z M840.1,1561.6c0,0-0.3,5-3,7.3c-0.7,0.6-1.4,1-2,1.4
	c0,0-1.7-2.8-3.4-5.5c-1.7-2.8-3.3-5.5-3.3-5.5l0.1-2.6l5,0.3l0.1-4.2l1.7,0.1l0.1-3.5c0,0,1.2,0.1,2.5,0.1c1.2,0,2.4,0.1,2.4,0.1
	L840.1,1561.6L840.1,1561.6z M865.8,1581.3c-2,1-5.1,3.1-7.7,5c-2.6,1.9-4.8,3.4-4.8,3.5l0.2,0.3h-1.3v-0.6l0.5,0.5
	c0,0,1.3-1.4,3.3-3.3c2-2,4.8-4.5,7.9-6.7c4.3-3.2,10.1-5.9,13.1-7.3l0.1,2.9C873.9,1577.1,868.5,1580,865.8,1581.3L865.8,1581.3z
	 M856.5,1556.1c0.8,0,1.5,0,1.5,0v4l7.6-0.1v2.1c-0.9,0.4-1.8,0.7-2.7,1.1c-2.3,0.9-4.4,2-6.2,2.9s-3.4,1.8-4.5,2.5l0.1-17.5l3,0.7
	l-0.3,4.3C855,1556.1,855.8,1556.1,856.5,1556.1L856.5,1556.1z M856.8,1568c1.9-1,4.2-2.2,6.8-3.2c2.1-0.9,4.2-1.7,6-2.5h1v-0.4
	c1.5-0.7,2.8-1.2,3.9-1.7l0.1,3.4c0,0,0.5,0,1.1,0c0.5,0,1.1,0,1.1,0v0.4c-3.2,1.1-8.6,2.9-13.8,5c-2.5,1-4.6,1.9-6.4,2.7
	c-1.8,0.8-3.2,1.5-4.3,2v-3l0,0C853.3,1569.9,854.8,1569,856.8,1568L856.8,1568z M870.5,1559.3h1.8c-0.5,0.2-1.1,0.5-1.7,0.8
	L870.5,1559.3z M856.5,1573.4c1.9-0.9,4.2-1.9,7-3c4.9-2,10.1-3.6,13.3-4.8l0.1,5c-2.9,1.4-9.2,4.3-14,7.8c-2.5,1.8-4.8,3.8-6.6,5.5
	c-1.9,1.7-3.3,3.1-4.1,4l0.1-12.5C853.2,1574.9,854.6,1574.3,856.5,1573.4L856.5,1573.4z M916,1569.9l-0.7-6.8l3.1,1.1l0,0l0.4,6.4
	L916,1569.9L916,1569.9z M920.8,1571.2l-0.3-6.2l3.2,0.6l0.2,6.3L920.8,1571.2L920.8,1571.2z M926.1,1572l-0.7-5.7l3.3,0.8l0.8,5.4
	L926.1,1572L926.1,1572z M925.5,1557.1l2.5-0.5l0.8,8l-3-0.4L925.5,1557.1z M930,1557.3c0,0,0.9-0.1,1.8-0.2
	c0.9-0.1,1.8-0.3,1.8-0.3l0.8,9.1c0,0-0.8-0.2-1.6-0.4c-0.8-0.2-1.6-0.4-1.6-0.4L930,1557.3L930,1557.3z M933.3,1572.7
	c-0.6-0.1-1.3-0.2-1.3-0.2l-0.7-4.7c0,0,0.7,0.2,1.5,0.3c0.7,0.1,1.5,0.3,1.5,0.3l0.3,4.6C934.5,1572.9,933.9,1572.8,933.3,1572.7
	L933.3,1572.7z M935.4,1556.4l3.8-0.4l1.1,11l-4-0.4L935.4,1556.4L935.4,1556.4z M936.7,1573.1l-0.2-4.5l4.2,0.4l0.1,4.5
	L936.7,1573.1L936.7,1573.1z M941.3,1557.2l2.8-3.4l1.6,13.1l-3.4-0.2L941.3,1557.2L941.3,1557.2z M943,1573.9l-0.5-4.3l4.1,0.1
	l0.7,3.7L943,1573.9L943,1573.9z M994.4,1550.7l5.6-0.5l0.2,1C997.9,1551,996,1550.8,994.4,1550.7L994.4,1550.7L994.4,1550.7z
	 M994.7,1552.6c1.7,0.3,3.7,0.7,6,1.1l1.5,7.7c-2.4-0.5-4.5-0.9-6.2-1.3L994.7,1552.6z M1057,1557.5l1.1,4c-2.9-0.5-5.6-1-8-1.4
	l-0.8-3c1,0.1,2,0.1,3,0.2C1053.9,1557.3,1055.5,1557.4,1057,1557.5z M1057,1544.5c0,0,1.8-0.4,3.7-0.8c1.8-0.4,3.6-0.9,3.6-0.9
	l0.9,3c0,0-2-0.2-4-0.3c-2-0.2-4-0.4-4-0.4L1057,1544.5z M1057.6,1546.9c0,0,2,0.2,4.1,0.4c2,0.2,4.1,0.3,4.1,0.3l2.6,8.7
	c-1.4,0-2.7-0.1-4.2-0.1c-1.4-0.1-2.8-0.2-4.3-0.2L1057.6,1546.9z M1067.9,1541.8l7.2-1.5l2,6.5l-7.9-0.6L1067.9,1541.8
	L1067.9,1541.8z M1064.7,1557.9c1.4,0.1,2.8,0.1,4.2,0.2l1.7,5.5c-1.5-0.3-3.1-0.5-4.6-0.8s-3-0.5-4.5-0.8l-1.1-4.4
	C1061.8,1557.8,1063.3,1557.9,1064.7,1557.9z M1069.8,1547.9l7.9,0.6l2.5,8.3c-2.5-0.1-5.1-0.2-7.9-0.3L1069.8,1547.9L1069.8,1547.9
	z M1056.6,1555.8c-2.5-0.1-5.1-0.3-7.7-0.4l-2.3-9.2l1-0.2l6.5,0.7L1056.6,1555.8L1056.6,1555.8z M1040.5,1534.1
	c-3.8,0.5-8.1,1-10.2,1.3s-5.8,0.7-9.1,1c-3.2,0.2-5.9,0.4-5.9,0.4l-1.6-7.4c0,0,2.5-0.5,5-1.1s5-1.2,5-1.2l0.7,2.9
	c0,0,5.1-1.5,10.2-2.9c2.6-0.7,5.1-1.5,7-2.1s3.2-1,3.2-1l2.9,9.2C1047.5,1533.2,1044.3,1533.6,1040.5,1534.1L1040.5,1534.1z
	 M1045.7,1556.8l0.6,2.7c-1.8-0.3-3.9-0.6-6.2-1l-0.5-2.2C1041.6,1556.5,1043.7,1556.7,1045.7,1556.8z M1039.2,1554.6l-1.8-7.8
	c0,0,1.5-0.2,2.9-0.4c1.5-0.2,2.9-0.4,2.9-0.4l2.1,9.1C1043.3,1555,1041.2,1554.8,1039.2,1554.6L1039.2,1554.6z M1018.2,1556.8
	l1.6,8c-2.3-0.4-4.5-0.8-6.7-1.2l-1.6-7.9C1013.6,1556.1,1015.9,1556.5,1018.2,1556.8L1018.2,1556.8z M1011.1,1553.9L1011.1,1553.9
	c2.1,0.2,4.3,0.4,6.6,0.6l0.1,0.6C1015.5,1554.7,1013.3,1554.3,1011.1,1553.9L1011.1,1553.9z M1019,1549c0,0,1.5-0.2,2.9-0.3
	c1.5-0.2,2.9-0.4,2.9-0.4l1.2,5.3c-2.1-0.1-4.1-0.4-6.1-0.6L1019,1549L1019,1549z M1026.3,1555.3l0.3,1.2c-2.1-0.3-4.2-0.7-6.3-1
	l-0.1-0.7C1022.2,1554.9,1024.3,1555.2,1026.3,1555.3z M1027,1558.3l1.8,8.1c-2.1-0.3-4.3-0.8-6.4-1.1l-1.6-8
	C1022.8,1557.6,1024.9,1558,1027,1558.3L1027,1558.3z M1027.8,1547.6l5.9-0.4l1.7,7.2c-2.1-0.2-4.2-0.3-6.2-0.5L1027.8,1547.6z
	 M1035.8,1556.1l0.5,1.9c-2-0.3-4.2-0.6-6.4-1l-0.3-1.4C1031.7,1555.7,1033.7,1555.9,1035.8,1556.1L1035.8,1556.1z M1016.6,1548.9
	l0.8,3.8c-2.3-0.2-4.5-0.4-6.6-0.6l-0.6-2.9L1016.6,1548.9z M1010.5,1563.1c-1.1-0.2-2.2-0.4-3.2-0.6s-2.1-0.4-3-0.6l-1.4-7.7
	c1,0.2,2,0.4,3,0.6s2.1,0.3,3.1,0.5L1010.5,1563.1z M1005.3,1551.7c-1-0.1-2-0.2-2.9-0.3l-0.3-1.4c0,0,1.4-0.2,2.9-0.4
	c1.4-0.3,2.8-0.5,2.8-0.5l0.6,2.9C1007.4,1551.9,1006.3,1551.8,1005.3,1551.7L1005.3,1551.7z M999.2,1578l-2.8-16
	c1.7,0.4,3.8,0.8,6.2,1.3l3,15.3L999.2,1578z M1010.3,1578.3c-1.5,0-3.1,0-3.1,0l-2.6-14.6c2,0.4,4.1,0.8,6.2,1.2l2.5,13.3
	C1013.4,1578.2,1011.9,1578.3,1010.3,1578.3z M1016.1,1578.1l-2.6-12.7c2.2,0.4,4.4,0.8,6.7,1.2l2.4,11.9L1016.1,1578.1
	L1016.1,1578.1z M1030.1,1577.2c-0.6,0-1.4,0.1-2.2,0.1c-1.6,0.1-3.2,0.2-3.2,0.2l-2.1-10.5c2.2,0.4,4.4,0.8,6.5,1.1l2,9
	C1031.1,1577.2,1030.7,1577.2,1030.1,1577.2L1030.1,1577.2z M1030.3,1558.8c2.2,0.3,4.3,0.6,6.4,0.9l1.9,8.2c-2.1-0.3-4.2-0.7-6.5-1
	L1030.3,1558.8L1030.3,1558.8z M1034.5,1577.6l-2-8.9c2.3,0.4,4.5,0.7,6.5,1l1.8,7.3L1034.5,1577.6L1034.5,1577.6z M1040.5,1560.3
	c2.3,0.4,4.4,0.7,6.3,1l1.9,8.2c-1.7-0.3-3.3-0.6-4.7-0.8c-0.5-0.1-1-0.2-1.6-0.2L1040.5,1560.3L1040.5,1560.3z M1049.3,1576.4
	c-0.6,0-1.3,0.1-2.1,0.1c-1.5,0.1-3,0.1-3,0.1l-1.5-6.3c0.3,0,0.7,0.1,1,0.1c1.6,0.2,3.4,0.6,5.3,0.9l1.2,5
	C1050.2,1576.3,1049.9,1576.4,1049.3,1576.4L1049.3,1576.4z M1050.5,1561.9c2.4,0.4,5.1,0.9,8,1.4l2.3,8.6c-2.9-0.6-5.6-1.1-8.2-1.6
	L1050.5,1561.9L1050.5,1561.9z M1054,1575.7l-0.9-3.7c2.6,0.5,5.4,1,8.2,1.6l0.4,1.4L1054,1575.7L1054,1575.7z M1069.9,1573.7
	c-1.9-0.4-3.8-0.8-5.7-1.2l-2.2-8.7c1.5,0.3,3,0.5,4.5,0.8s3.1,0.5,4.6,0.8l2.4,7.9L1069.9,1573.7L1069.9,1573.7z M1072.8,1558.2
	c2.8,0.1,5.5,0.2,7.9,0.3l2.2,7.2c-2.6-0.4-5.4-0.9-8.3-1.4L1072.8,1558.2z M1076.9,1572.2l-1.8-6.1c2.9,0.5,5.7,0.9,8.3,1.4
	l1.1,3.6L1076.9,1572.2L1076.9,1572.2z M1095.2,1570.3l-7.2,0.9l-0.9-3c3,0.4,5.6,0.8,7.7,1.1L1095.2,1570.3L1095.2,1570.3z
	 M1094.3,1567.4c-2.1-0.3-4.7-0.7-7.7-1.1l-2.2-7.7c2.8,0,5.2,0.1,7.2,0.1L1094.3,1567.4L1094.3,1567.4z M1091.1,1557
	c-2.1,0-4.5-0.1-7.2-0.1l-2.4-8.2l7.2,0.3L1091.1,1557L1091.1,1557z M1088.1,1547.4l-7.1-0.3l-2.2-7.5l6.4-1.7L1088.1,1547.4
	L1088.1,1547.4z M1339.4,1395l-1.6,1.4l-11.9-13.7l1.7-1.4L1339.4,1395z M1492.5,825.6c0,0,0,3.1-0.1,9c0,5.9-0.3,14.5-0.8,25.4
	c-0.7,10.9-1.5,24.2-3.4,39.3c-0.4,3.8-0.8,7.7-1.4,11.7s-1.1,8.1-1.7,12.3c-0.7,4.2-1.4,8.5-2.1,13c-0.7,4.4-1.7,8.9-2.5,13.5
	c-3.6,18.4-8.4,38.1-14.6,58.6c-6.1,20.5-13.7,41.9-22.7,63.5s-19.7,43.3-31.7,64.8c-2.9,5.4-6.2,10.7-9.3,16
	c-1.5,2.7-3.2,5.3-4.9,7.9c-1.6,2.6-3.3,5.3-4.9,7.9c-6.8,10.4-13.8,20.8-21.2,30.9c-29.3,40.5-63.8,77.2-99.2,107.9
	c-17.8,15.3-35.7,29.1-53.4,41.4c-17.6,12.3-34.9,22.9-51.3,32.1c-4.1,2.3-8.1,4.6-12.1,6.6c-2,1-3.9,2.1-5.9,3.1
	c-1.9,1-3.8,2-5.8,3c-3.8,1.9-7.5,3.7-11.2,5.5c-3.7,1.7-7.2,3.4-10.7,5c-3.4,1.7-6.8,3.1-10.1,4.5c-3.3,1.4-6.4,2.8-9.4,4.1
	s-6,2.4-8.8,3.6c-1.4,0.6-2.8,1.1-4.1,1.7c-1.3,0.5-2.7,1-3.9,1.5c-2.5,1-5,1.9-7.2,2.8c-1.1,0.4-2.2,0.8-3.3,1.3
	c-1.1,0.4-2.1,0.7-3.1,1.1c-4,1.4-7.4,2.6-10.2,3.6s-4.9,1.6-6.3,2.1s-2.2,0.7-2.2,0.7l-0.5,0.2l0,0c0,0-0.4,0.1-1.2,0.4l-1,0.3
	c-1.4,0.5-3.6,1.2-6.4,2s-6.3,1.9-10.3,3.1c-1,0.3-2.1,0.6-3.2,0.9s-2.2,0.6-3.4,0.9c-2.3,0.6-4.8,1.3-7.5,2
	c-21.1,5.6-51.6,12.5-88.9,16.9c-18.6,2.2-38.9,3.7-60.4,4.2s-44.3-0.1-67.6-2c-46.7-3.9-96.1-13.2-143.5-28.8
	c-47.5-15.3-93-36.7-133.1-61c-20-12.2-38.7-25.1-55.8-38.1c-17.1-13-32.6-26.2-46.3-38.9c-13.8-12.7-25.9-24.9-36.2-36.2
	c-1.3-1.4-2.6-2.7-3.8-4.1c-1.2-1.4-2.4-2.7-3.6-4.1c-2.3-2.7-4.7-5.2-6.8-7.7c-2.1-2.5-4.2-4.9-6.1-7.2c-1-1.1-1.9-2.3-2.9-3.4
	c-0.9-1.1-1.8-2.2-2.6-3.3c-1.7-2.1-3.3-4.1-4.9-6c-0.8-1-1.5-1.9-2.2-2.8s-1.4-1.8-2-2.6c-2.6-3.4-4.8-6.2-6.6-8.6
	c-1.9-2.6-3.3-4.5-4.2-5.7l-1.4-1.9c0,0-0.5-0.6-1.4-1.9c-0.9-1.2-2.3-3-3.9-5.4c-1.7-2.4-3.7-5.4-6.1-8.9c-1.2-1.7-2.5-3.6-3.8-5.7
	c-1.3-2-2.8-4.2-4.3-6.5s-3-4.7-4.6-7.3c-1.6-2.6-3.3-5.2-5-8s-3.4-5.8-5.2-8.8c-0.9-1.5-1.8-3.1-2.8-4.7c-0.9-1.6-1.8-3.2-2.7-4.9
	c-0.9-1.7-1.9-3.3-2.8-5.1c-1-1.7-2-3.4-2.9-5.2c-1.9-3.6-3.8-7.2-5.8-11c-1.9-3.8-3.9-7.7-5.9-11.8c-0.5-1-1-2-1.5-3
	s-1-2.1-1.4-3.1c-1-2.1-1.9-4.2-2.9-6.3c-7.8-17-15.6-35.8-22.7-56c-7.1-20.2-13.5-42-18.9-64.7c-10.7-45.6-16.7-95.5-16.7-145.6
	c0.1-50.1,6-100,16.7-145.6c5.3-22.8,11.8-44.5,18.9-64.7s14.8-39,22.7-56c1-2.1,2-4.2,2.9-6.3c0.5-1,1-2.1,1.4-3.1c0.5-1,1-2,1.5-3
	c2-4,4-7.9,5.9-11.8c2-3.8,3.9-7.4,5.8-11c0.9-1.8,1.9-3.5,2.9-5.2s1.9-3.4,2.8-5.1c0.9-1.7,1.8-3.3,2.7-4.9
	c0.9-1.6,1.9-3.1,2.8-4.7c1.8-3.1,3.6-6,5.2-8.8c1.7-2.8,3.4-5.5,5-8c1.6-2.6,3.1-5,4.6-7.3s2.9-4.4,4.3-6.5c1.3-2,2.6-4,3.8-5.7
	c2.4-3.5,4.5-6.5,6.1-8.9s3-4.2,3.9-5.4c0.9-1.2,1.3-1.9,1.3-1.9l0.3-0.4c0,0,1.8-2.5,5.3-7.2c3.6-4.6,8.7-11.5,15.7-20
	c0.9-1.1,1.7-2.2,2.6-3.3c0.9-1.1,1.9-2.2,2.9-3.4c2-2.3,4-4.7,6.1-7.2s4.5-5,6.8-7.7c1.2-1.3,2.4-2.7,3.6-4.1s2.5-2.7,3.8-4.1
	c10.3-11.3,22.4-23.5,36.2-36.2c13.8-12.7,29.3-25.9,46.3-38.9c17.1-13,35.7-25.9,55.8-38.1c40.1-24.2,85.5-45.7,133.1-61
	c23.7-7.7,47.9-14.1,72-18.8c24.1-4.8,48.1-8.1,71.5-10s46.1-2.5,67.6-2.1c21.5,0.5,41.8,2,60.4,4.2c37.2,4.3,67.8,11.2,88.9,16.9
	c2.6,0.7,5.1,1.4,7.5,2c1.2,0.3,2.3,0.6,3.4,0.9c1.1,0.3,2.1,0.6,3.2,0.9c4.1,1.2,7.5,2.2,10.3,3.1c2.8,0.8,4.9,1.6,6.4,2
	c1.4,0.5,2.2,0.6,2.2,0.6l0.4,0.3l2.2,0.7c1.4,0.5,3.6,1.1,6.3,2.1c2.8,1,6.2,2.2,10.2,3.6c1,0.4,2,0.7,3.1,1.1
	c1.1,0.4,2.2,0.8,3.3,1.3c2.3,0.9,4.7,1.8,7.2,2.7c1.3,0.5,2.6,1,3.9,1.5s2.7,1.1,4.1,1.7c2.8,1.1,5.7,2.3,8.8,3.6
	c3,1.2,6.2,2.7,9.4,4.1c3.3,1.4,6.6,2.9,10.1,4.5c3.4,1.6,7,3.3,10.7,5c3.6,1.8,7.3,3.6,11.2,5.5c1.9,0.9,3.8,1.9,5.8,3
	c1.9,1,3.9,2.1,5.9,3.1c4,2,8,4.3,12.1,6.6c16.3,9.2,33.6,19.8,51.3,32.1c17.7,12.2,35.6,26.1,53.4,41.4
	c35.4,30.7,69.9,67.4,99.2,107.9c7.4,10.1,14.4,20.5,21.2,30.9c1.6,2.6,3.3,5.3,4.9,7.9s3.3,5.2,4.9,7.9c3.1,5.3,6.4,10.6,9.3,16
	c12,21.4,22.7,43.2,31.8,64.8c9,21.6,16.6,42.9,22.8,63.5c6.2,20.5,10.9,40.3,14.6,58.6c0.9,4.6,1.8,9.1,2.5,13.5s1.4,8.7,2.1,13
	c0.6,4.2,1.2,8.3,1.8,12.3c0.6,4,1,7.9,1.4,11.7c1.8,15.1,2.7,28.4,3.4,39.3c0.5,10.9,0.8,19.5,0.8,25.4c0.1,5.9,0.1,9,0.1,9
	L1492.5,825.6L1492.5,825.6z M1531.4,550.5l-0.8-2.1l16.6-6.9l0.9,1.9L1531.4,550.5z M1595.7,1089.7l1,1.6l-1.2-0.4L1595.7,1089.7z
	 M1635.1,828c-1,1.9-2.2,4.3-3.5,7l-8-0.2c0.9-2.6,1.7-4.9,2.4-6.8H1635.1L1635.1,828z M1597.3,905.3l7.9,1c-1.1,2-2.1,3.8-3.1,5.6
	l-7.8-1C1595.3,909.1,1596.3,907.2,1597.3,905.3L1597.3,905.3z M1596.6,902.9c0.9-1.9,1.7-4,2.6-6.1l0.6,0.1
	C1598.7,899,1597.7,901,1596.6,902.9L1596.6,902.9L1596.6,902.9z M1598.5,903.1c1.1-2,2-4,3.1-6l8.1,0.9c-1.1,2-2.1,4-3.2,6
	L1598.5,903.1L1598.5,903.1z M1600.2,894.6c0.8-1.9,1.6-3.8,2.4-5.7l1.2,0.1c-1,1.9-1.9,3.8-2.9,5.7L1600.2,894.6L1600.2,894.6z
	 M1602.7,894.8c1-1.9,1.9-3.8,2.9-5.7l8.2,0.8c-1,1.9-2,3.8-3,5.8L1602.7,894.8L1602.7,894.8z M1616.5,849.2c-1,2.5-2,5.2-3,7.9
	l-9.3-0.6l3.2-7.5L1616.5,849.2z M1609,845.3l2.9-7.3l8.7,0.1c-0.8,2.3-1.7,4.8-2.6,7.4L1609,845.3L1609,845.3z M1614.1,860.4
	l4.1,0.2c-0.7,1.3-1.3,2.5-1.9,3.7s-1.2,2.3-1.8,3.4l-3.1-0.2c0.4-1,0.8-1.9,1.1-2.8C1613.1,863.2,1613.6,861.8,1614.1,860.4
	L1614.1,860.4z M1612.7,871.1c-0.8,1.7-1.8,3.6-2.8,5.7l-2.2-0.2c0.8-1.9,1.5-3.8,2.3-5.7L1612.7,871.1L1612.7,871.1z M1608.2,880.2
	c-0.9,1.8-1.8,3.8-2.9,5.8l-1.5-0.1c0.8-1.9,1.6-3.8,2.4-5.8L1608.2,880.2L1608.2,880.2z M1607.2,886.1c1-2,2-3.9,2.9-5.8l8.4,0.7
	c-0.5,0.9-0.9,1.9-1.4,2.9s-1,2-1.6,3L1607.2,886.1L1607.2,886.1z M1611.7,876.9l2.8-5.7l8.4,0.7c-0.8,1.5-1.6,2.9-2.2,4.2
	c-0.2,0.5-0.5,0.9-0.7,1.4L1611.7,876.9L1611.7,876.9z M1616.3,867.9c0.6-1.1,1.2-2.2,1.8-3.4c0.6-1.2,1.3-2.5,1.9-3.7l8.9,0.5
	c-0.7,1.3-1.4,2.5-2.1,3.7s-1.4,2.4-2,3.6L1616.3,867.9z M1619.8,857.5l-4.5-0.3c1-2.7,2-5.4,3-8l5.8,0.1
	C1622.7,852.1,1621.2,854.9,1619.8,857.5L1619.8,857.5z M1619.7,845.6c0.9-2.6,1.8-5.1,2.6-7.4l7.5,0.1c-1.2,2.4-2.5,4.9-3.8,7.5
	L1619.7,845.6L1619.7,845.6z M1624.2,827.9c-0.7,2-1.5,4.2-2.4,6.8l-8.5-0.2l2.6-6.7L1624.2,827.9L1624.2,827.9z M1604.2,827.6
	l9.9,0.1l-2.6,6.7l-7.8-0.2L1604.2,827.6L1604.2,827.6z M1603.3,837.8l6.8,0.1l-2.9,7.3l-4.6-0.1L1603.3,837.8z M1602.4,849l3.2,0.1
	l-3.2,7.4h-0.7L1602.4,849z M1600.3,865.8c0,0,0.2-0.4,0.4-0.9c0.3-0.6,0.6-1.3,0.9-2.1c0.6-1.5,1.3-3,1.3-3l9.5,0.5
	c-0.9,2.4-1.8,4.7-2.8,7.1l-9.5-0.6L1600.3,865.8L1600.3,865.8z M1598.9,870l9.3,0.8c-0.8,1.9-1.5,3.8-2.3,5.7l-8-0.7L1598.9,870
	L1598.9,870z M1596.5,882.2c0.3-1.4,0.7-2.9,0.7-2.9l7.4,0.6c-0.8,1.9-1.6,3.9-2.4,5.7l-6.4-0.6
	C1595.7,885.1,1596.1,883.7,1596.5,882.2z M1595.4,888.2l5.4,0.5c-0.8,1.9-1.6,3.8-2.4,5.7l-4.1-0.5L1595.4,888.2z M1592.8,899.3
	c0.4-1.6,0.8-3.1,0.8-3.1l3.9,0.4c-0.9,2.1-1.7,4.2-2.6,6.1l-2.9-0.3C1592,902.4,1592.4,900.9,1592.8,899.3z M1590.9,904.5l3,0.4
	c-0.9,2-1.7,3.8-2.4,5.5l-1.4-0.2L1590.9,904.5z M1589.6,912.4l1,0.1c-0.9,2.1-1.6,3.9-2.2,5.4h-0.1L1589.6,912.4L1589.6,912.4z
	 M1575.8,975.7c0,0,0.2-0.9,0.4-1.9c0.2-0.9,0.4-1.9,0.4-1.9l10.8,2.3c0,0-0.4,0.9-0.8,1.8c-0.4,0.9-0.8,1.8-0.8,1.8L1575.8,975.7
	L1575.8,975.7z M1584.4,979.6l-1.8,2.8l-7.8-1.3l0.6-3.5L1584.4,979.6L1584.4,979.6z M1578.3,970.3l-2.4-3.7l12.9,2.5l-1.2,3.2
	L1578.3,970.3z M1574.9,882.8l2.9,0.2c0,0,0-0.3,0-0.9c0-0.6,0.1-1.4,0.1-2.4c0-2,0.1-4.6,0.2-7.3s0.1-5.3,0.2-7.3
	c0-1,0-1.8,0.1-2.4v-0.9l9.7,0.1c0,0,0,0.2-0.1,0.6c-0.1,0.4-0.2,0.9-0.3,1.5c-0.2,1.3-0.6,3-0.9,4.9c-0.7,3.7-1.5,8-1.8,10.1
	s-1.2,5.8-1.9,8.9c-0.8,3.1-1.4,5.8-1.4,5.8l-7.5-0.7L1574.9,882.8L1574.9,882.8z M1559,1036.7c0.1,0.6,0.1,1.2,0.2,1.9l-0.7-0.2
	L1559,1036.7z M1543.1,1077.5c0,0,0.1-0.3,0.3-0.7c0.2-0.4,0.4-1,0.6-1.6c0.5-1.2,0.9-2.4,0.9-2.4l-3.9-1.4l0.6-1.6l-3.3-1.2
	l1.7-4.6l11.4,4c0,0,4.6,1.8,5.9,5.1c0.3,0.8,0.6,1.6,0.7,2.3c0,0-3.1,0.8-6.2,1.5s-6.2,1.5-6.2,1.5L1543.1,1077.5L1543.1,1077.5z
	 M1558.2,1078.6c0,0-0.3,1-0.6,2c-0.3,1-0.7,2-0.7,2l-8.6-3.2c0,0,2.5-0.6,5-1.2s5-1.2,5-1.2
	C1558.3,1078,1558.2,1078.6,1558.2,1078.6z M1545.1,1053.1l1.6-2.6l4,1.6l0.9-2.9l3.8,1.2c0,0,0.6-1.8,1.2-3.6
	c0.3-0.9,0.6-1.8,0.8-2.5c0.2-0.7,0.4-1.1,0.4-1.1l2,0.6c0.1,1,0.1,1.9,0.2,2.9c0.3,4.9,1.2,9.3,1.8,11.8L1545.1,1053.1z
	 M1563.6,1059.2c-0.6-2.3-1.6-7.1-1.9-12.5c-0.1-2.2-0.4-4.5-0.6-6.5l0.3-1l-0.4-0.1c-0.2-1.6-0.3-3.1-0.5-4.3l3.3,1l0.6-2l0.4,0.1
	c0,3.4,0.2,9.1,0.5,14.7c0.3,5.3,0.8,9.3,1.2,11.6L1563.6,1059.2L1563.6,1059.2z M1568.2,1060.8c-0.4-2.1-1-6.3-1.3-12.2
	c-0.3-5.3-0.5-10.8-0.5-14.2l4.8,1.4c0.3,3.1,1.4,10.1,3.2,15.7c1.9,5.8,4.6,11.1,5.7,13.2L1568.2,1060.8L1568.2,1060.8z
	 M1575.9,1037.1c0.6,3.5,1.8,9.6,2.2,12.5c0.3,2.2,1.3,5.8,2.3,8.9c0.5,1.5,0.9,2.9,1.3,4c0.3,1,0.6,1.7,0.6,1.7l0.3-0.1l-0.4,1.3
	l-0.6-0.2l0.6-0.3c0,0-0.9-1.6-2.1-4.2c-1.2-2.5-2.7-6-3.9-9.6c-1.6-5.1-2.6-11.4-3-14.8L1575.9,1037.1L1575.9,1037.1z
	 M1573.4,985.4L1573.4,985.4l0.3-2.6l7.8,1.7l-1.3,2.8L1573.4,985.4z M1582.7,998.4l-6.7-1.5l2.1-2.6l0,0l6.2,1.6L1582.7,998.4z
	 M1585.4,994.2l-6-1.6l1.5-2.8l6.1,1.8L1585.4,994.2L1585.4,994.2z M1587.7,989.4l-5.6-1.1l1.8-2.9l5.4,0.9L1587.7,989.4z
	 M1590,983.9l-4.7-0.7l1.4-2.6l4.5,1.1L1590,983.9L1590,983.9z M1592.9,977.7c-0.4,1-0.8,1.9-0.8,1.9l-4.3-1.2c0,0,0.4-1,0.9-2
	c0.4-1,0.8-2,0.8-2l4.3,1.3C1593.7,975.8,1593.3,976.8,1592.9,977.7L1592.9,977.7z M1594.8,973.9l-4.3-0.9l1.3-3.9l3.8,0.5
	L1594.8,973.9L1594.8,973.9z M1598,919.2l-7.6-1.1c0.8-1.5,1.8-3.3,2.9-5.3l7.8,0.9C1599.9,915.9,1598.8,917.7,1598,919.2
	L1598,919.2z M1615.9,921.7l-16.1-2.2c0.8-1.5,1.9-3.4,3.1-5.5l15.5,1.8L1615.9,921.7L1615.9,921.7z M1618.6,914.1l-14.7-2
	c1-1.7,2-3.6,3.1-5.6l13.4,1.7L1618.6,914.1L1618.6,914.1z M1622.3,902.6c-0.6,1.5-1.2,3-1.2,3l-12.9-1.4c1.1-1.9,2.1-3.9,3.2-6
	l12.1,1.4C1623.5,899.6,1622.9,901.1,1622.3,902.6L1622.3,902.6z M1623.3,897.1l-10.7-1.2c1-2,2-3.9,3-5.8l9.2,0.9L1623.3,897.1
	L1623.3,897.1z M1627.1,884.8l-0.8,3.1l-9.1-0.8c0.5-1,1.1-2,1.6-3s1-1.9,1.4-2.9l7.5,0.6C1627.8,881.7,1627.4,883.3,1627.1,884.8
	L1627.1,884.8z M1628.4,878.4l-6.5-0.6c0.1-0.3,0.3-0.6,0.4-0.9c0.7-1.4,1.5-3.1,2.5-4.8l5.1,0.4L1628.4,878.4z M1631.5,865.1
	c-0.5,1.9-0.9,3.8-0.9,3.8l-3.8-0.3c0.7-1.2,1.3-2.4,2-3.6c0.7-1.2,1.4-2.5,2.1-3.7l1.4,0.1C1632.3,861.3,1631.9,863.2,1631.5,865.1
	L1631.5,865.1z M1633.5,853.1c-0.9,1.7-1.9,3.4-2.8,5l-8.9-0.5c1.4-2.7,2.9-5.4,4.3-8.2l8.3,0.2L1633.5,853.1L1633.5,853.1z
	 M1634.3,845.9l-6.3-0.2c1.3-2.6,2.6-5.1,3.8-7.5l3.8,0.1L1634.3,845.9z M1636.6,835.1l-3.2-0.1c1.4-2.7,2.6-5.1,3.5-7h1.1
	L1636.6,835.1z"/>
</svg>
